<svg xmlns="http://www.w3.org/2000/svg" width="104" height="97" viewBox="0 0 104 97" fill="none"><g clip-path="url(#clip0_7351_52131)"><path d="M12.1923 73.0351C11.2511 72.995 10.314 73.0207 9.37752 73.0161C8.43776 73.0116 7.49796 73.0151 6.55818 73.0151H-1.85965C-1.97761 72.8598 -1.88701 72.7937 -1.83105 72.7219C-1.14505 71.8408 -0.458362 70.9603 0.22897 70.0805C0.917718 69.202 1.60859 68.3254 2.30159 67.4507C2.33238 67.4116 2.36685 67.3758 2.40051 67.3393C3.32488 66.3391 4.14958 65.2395 5.12413 64.2892C5.37925 64.0407 5.58556 63.7415 5.73128 63.4087C5.42847 63.0881 5.118 62.7708 4.8195 62.4413C3.80467 61.3212 2.7551 60.2326 1.79355 59.0633C0.945073 58.0315 0.0745749 57.014 -0.682574 55.8991C-0.933887 55.5291 -1.23633 55.1982 -1.50512 54.8408C-1.66702 54.6256 -1.8091 54.3937 -2 54.11C-1.22107 54.0066 -0.506846 54.0704 0.204042 54.0588C0.926775 54.0469 1.64982 54.0561 2.37273 54.0561H6.60194C6.77274 53.8904 6.63636 53.7427 6.64983 53.6018C6.66426 53.4508 6.6472 53.2967 6.64714 53.1439C6.64637 51.1068 6.64274 49.0698 6.64989 47.0327C6.65086 46.7567 6.70563 46.4808 6.73772 46.205C6.7465 46.1297 6.78005 46.0538 6.77392 45.9808C6.71379 45.2638 6.9036 44.5691 6.94081 43.8606C6.96677 43.4822 7.01589 43.1061 7.08783 42.7344C7.45406 40.6689 7.79162 38.5963 8.40849 36.5906C8.57907 36.036 8.73785 35.4773 8.9033 34.921C9.24958 33.7566 9.67615 32.6251 10.148 31.5117C10.4524 30.7935 10.7394 30.0671 11.0454 29.3497C11.1829 29.0274 11.3403 28.7138 11.502 28.404C11.8734 27.6924 12.2496 26.9836 12.6307 26.2777C12.8452 25.881 13.0709 25.491 13.2985 25.1025C13.5514 24.671 13.8124 24.2447 14.0695 23.816C14.6488 22.8501 15.3287 21.9613 15.979 21.0504C16.4705 20.3618 17.0131 19.717 17.5397 19.0583C18.6934 17.6154 20.0091 16.3456 21.2695 15.0174C21.743 14.5184 22.3024 14.1117 22.8082 13.6455C23.8235 12.7095 24.943 11.9194 26.0226 11.0743C26.562 10.6522 27.1583 10.3122 27.7181 9.91823C28.7617 9.18378 29.8816 8.58823 30.9959 7.99661C32.2178 7.34788 33.4552 6.71653 34.751 6.23572C35.8618 5.82357 36.9708 5.40528 38.0884 5.01448C39.3646 4.56818 40.6769 4.25506 41.9909 3.97025C42.7858 3.79794 43.5878 3.64244 44.3917 3.51523C44.9833 3.42163 45.5832 3.38768 46.1791 3.32414C46.417 3.29877 46.654 3.26401 46.8917 3.236C47.0821 3.21355 47.2726 3.18482 47.4638 3.17626C48.1824 3.14406 48.9008 3.20056 49.6197 3.04812C50.0369 2.95963 50.4843 3.01822 50.9178 3.02882C51.4683 3.04229 52.0165 3.00463 52.5681 3.14055C52.9349 3.23094 53.3354 3.16656 53.7207 3.17603C54.08 3.18486 54.4443 3.13935 54.7906 3.2947C54.8541 3.32317 54.933 3.31904 55.0049 3.3197C55.7273 3.32641 56.4293 3.52119 57.1412 3.58828C57.8859 3.65846 58.5967 3.90895 59.341 3.95611C59.5054 3.96653 59.665 4.04714 59.8288 4.0856C61.3047 4.43197 62.7656 4.832 64.2059 5.32405C65.3724 5.72256 66.5133 6.18722 67.6436 6.68236C68.2872 6.96431 68.9209 7.27517 69.5441 7.60464C70.0589 7.87681 70.5829 8.12863 71.0969 8.40352C72.4086 9.10506 73.6509 9.92919 74.8848 10.763C75.8336 11.4041 76.7266 12.1397 77.6267 12.8581C78.2775 13.3775 78.8873 13.9527 79.5115 14.5075C80.658 15.5266 81.6631 16.6921 82.7319 17.791C83.387 18.4645 83.963 19.2132 84.5318 19.9679C84.6814 20.1664 84.8758 20.328 85.0202 20.5299C85.5266 21.2378 86.0103 21.9637 86.5206 22.6684C87.4577 23.9626 88.2421 25.3623 89.0042 26.7711C89.4794 27.6496 89.9854 28.5161 90.331 29.4748C90.6128 30.2567 91.0055 30.993 91.3168 31.764C91.9109 33.2355 92.4498 34.7294 92.8511 36.2751C93.0542 37.0575 93.301 37.8288 93.4704 38.6189C93.7243 39.8023 94.0075 40.9798 94.1521 42.1887C94.257 43.0656 94.4205 43.9346 94.548 44.8088C94.5772 45.0087 94.5681 45.2151 94.5725 45.4186C94.5796 45.7482 94.5689 46.0743 94.6731 46.3992C94.7326 46.5845 94.7104 46.8022 94.7106 47.0053C94.7129 49.0169 94.7123 51.0285 94.709 53.04C94.7081 53.3414 94.665 53.6427 94.6408 53.9515C94.7929 54.118 94.9964 54.0527 95.1799 54.0531C97.2523 54.0578 99.3246 54.0589 101.397 54.0561C101.927 54.0561 102.457 54.055 102.987 54.0568C103.13 54.0574 103.272 54.0671 103.418 54.0728C103.433 54.3313 103.281 54.48 103.175 54.6251C102.721 55.2473 102.242 55.8495 101.773 56.4602C101.426 56.9129 101.08 57.3666 100.735 57.8213C100.704 57.8609 100.678 57.9037 100.645 57.9412C100.112 58.5616 99.5789 59.1816 99.0449 59.8011C98.526 60.4008 98.0131 61.0066 97.4813 61.5932C96.9647 62.1632 96.4267 62.7113 95.9006 63.2717C95.8517 63.3237 95.8209 63.3947 95.7843 63.4527C95.9741 63.8105 96.214 64.136 96.4958 64.4181C96.8925 64.827 97.2918 65.235 97.6629 65.6692C98.2095 66.3087 98.732 66.9713 99.2655 67.6233C99.3442 67.7195 99.4246 67.8145 99.5086 67.9055C100.113 68.5602 100.657 69.2694 101.197 69.9832C101.527 70.4188 101.892 70.8238 102.229 71.254C102.653 71.7973 103.074 72.345 103.5 72.973C102.644 73.0549 101.854 73.0036 101.065 73.013C100.27 73.0225 99.4747 73.0151 98.6795 73.0151H89.1798C88.8278 73.6287 88.4932 74.2424 88.1303 74.8367C87.6486 75.6256 87.1499 76.4031 86.6486 77.1782C86.3643 77.618 86.0736 78.0547 85.7617 78.4727C85.2123 79.2089 84.6271 79.9158 84.0888 80.6608C83.4138 81.5946 82.6133 82.4075 81.8274 83.2234C81.024 84.0574 80.2752 84.9594 79.36 85.6746C78.9172 86.0205 78.528 86.4421 78.1004 86.811C77.673 87.1798 77.2403 87.5444 76.7883 87.878C75.5083 88.8228 74.237 89.7799 72.8752 90.5965C71.808 91.2365 70.7485 91.8909 69.6366 92.4399C68.4393 93.0312 67.228 93.5909 65.9838 94.0656C65.3964 94.2897 64.8096 94.5168 64.216 94.7208C62.7578 95.2285 61.2714 95.6402 59.7652 95.9537C59.1778 96.0736 58.596 96.2243 58.0104 96.355C57.659 96.4334 57.2995 96.4176 56.9417 96.5037C56.4084 96.632 55.8496 96.6419 55.3014 96.7004C55.2057 96.7106 55.1025 96.6908 55.014 96.7213C54.5217 96.8912 54.0139 96.8356 53.5107 96.8571C53.2484 96.8683 52.9876 96.9147 52.7257 96.9411C52.511 96.9628 52.2959 96.9921 52.0808 96.9941C51.3338 97.0011 50.5869 97.0019 49.8398 96.9965C49.4087 96.9933 48.9826 96.9952 48.5503 96.892C48.1819 96.8042 47.7832 96.8596 47.398 96.8495C47.0866 96.8413 46.7718 96.8795 46.4706 96.7449C46.3855 96.7069 46.2815 96.7045 46.1863 96.7053C45.2456 96.7134 44.3291 96.4832 43.4068 96.3468C42.2714 96.1789 41.1499 95.8855 40.0343 95.5951C38.8931 95.2981 37.7553 94.9773 36.6483 94.5535C35.3157 94.0435 33.9774 93.5482 32.6988 92.8927C32.0282 92.5489 31.3371 92.2482 30.6741 91.889C29.0479 91.0082 27.4781 90.0155 25.9748 88.9173C25.1061 88.2826 24.2509 87.6274 23.4091 86.9518C22.9696 86.6005 22.5785 86.1822 22.1512 85.8128C20.5995 84.4715 19.2715 82.8872 17.8534 81.4012C17.4964 81.0272 17.177 80.6098 16.8645 80.1922C16.2246 79.337 15.5779 78.4857 14.9772 77.6C14.3619 76.6927 13.79 75.752 13.2152 74.8149C12.8635 74.2413 12.5423 73.6468 12.1923 73.0351ZM89.0378 53.9959C89.0579 53.5256 89.0236 53.1084 89.1062 52.7188C89.1977 52.2876 89.2009 51.8618 89.2028 51.4313C89.2075 50.3618 89.2041 49.2923 89.2006 48.2229C89.2 48.0196 89.2214 47.8042 89.1665 47.616C89.0716 47.2908 89.0879 46.9629 89.0644 46.6343C89.0156 45.9521 88.9674 45.2692 88.8892 44.5903C88.8286 44.0637 88.7271 43.542 88.6361 43.0197C88.5104 42.2979 88.399 41.5723 88.2419 40.8581C88.0628 40.0434 87.8421 39.2389 87.6363 38.4308C87.1415 36.4877 86.4659 34.6125 85.6516 32.7979C84.8993 31.1216 84.1097 29.4655 83.1446 27.9047C82.4339 26.7555 81.7137 25.6185 80.8898 24.5568C80.6005 24.184 80.3 23.8207 80.0159 23.4436C79.5521 22.8279 79.0844 22.2173 78.5636 21.6523C77.4561 20.4503 76.2896 19.3104 75.0691 18.2376C74.2734 17.5384 73.4479 16.8857 72.6077 16.2518C70.9191 14.9778 69.1098 13.9243 67.2511 12.9542C65.8672 12.2319 64.44 11.6299 62.9853 11.0996C61.3521 10.5025 59.6781 10.0382 57.978 9.71083C56.6326 9.45263 55.294 9.17468 53.9225 9.13591C53.8504 9.13387 53.7729 9.14234 53.7072 9.11801C53.2631 8.95356 52.8024 8.9974 52.347 8.99553C51.094 8.9904 49.841 8.99534 48.588 8.99883C48.3955 8.99937 48.191 8.97185 48.0131 9.02967C47.6348 9.15262 47.2515 9.13298 46.8679 9.14776C46.7234 9.1484 46.579 9.15675 46.4353 9.1728C45.819 9.26324 45.2018 9.34944 44.5884 9.4588C43.9274 9.57665 43.2656 9.69747 42.6125 9.85504C41.6536 10.0864 40.7044 10.3594 39.7551 10.634C38.1954 11.0852 36.7023 11.7185 35.2269 12.3957C34.3918 12.7789 33.5644 13.1889 32.7616 13.6573C31.9189 14.149 31.0769 14.6425 30.2612 15.1787C28.2156 16.5233 26.3323 18.1009 24.5537 19.8124C23.4323 20.8915 22.4041 22.0722 21.407 23.2808C21.3912 23.3 21.3754 23.3193 21.3607 23.3395C20.7456 24.1834 20.1252 25.0231 19.5171 25.8726C18.5725 27.1923 17.7485 28.5957 17.0086 30.0514C16.5769 30.9006 16.1514 31.7541 15.7661 32.6307C15.249 33.8077 14.785 35.0062 14.3743 36.2263C13.7641 38.0441 13.2754 39.9049 12.9118 41.795C12.7247 42.7615 12.5551 43.7367 12.4622 44.717C12.3907 45.4719 12.2213 46.222 12.2821 46.9904C12.2919 47.1152 12.2909 47.2536 12.2503 47.368C12.1361 47.6893 12.1575 48.0204 12.1556 48.3498C12.1506 49.241 12.1791 50.1334 12.1434 51.0231C12.1075 51.918 12.3397 52.7894 12.3023 53.6816C12.2975 53.795 12.3603 53.9116 12.3994 54.0544C37.8492 54.0544 63.28 54.0537 88.6916 54.0524C88.7839 54.0524 88.8761 54.0232 89.0378 53.9959ZM18.8101 73.0376C18.9316 73.2612 18.9923 73.3985 19.0744 73.5196C19.4238 74.035 19.7768 74.5478 20.1334 75.0578C20.7998 76.0207 21.5202 76.9406 22.2907 77.8123C23.5765 79.2552 24.9013 80.6586 26.3845 81.8869C27.1973 82.5601 27.9984 83.2455 28.851 83.8641C30.4992 85.0598 32.209 86.1423 34.0069 87.0669C34.3741 87.2557 34.7494 87.4279 35.1263 87.594C35.9244 87.9456 36.7169 88.3145 37.5282 88.6289C39.2196 89.2846 40.9432 89.8319 42.7104 90.2132C43.3203 90.3448 43.9328 90.463 44.5479 90.5678C45.0207 90.6477 45.5083 90.6507 45.9718 90.7666C46.7028 90.9494 47.4608 90.8141 48.1844 91.0245C49.148 91.0299 50.1118 91.0524 51.0751 91.036C52.0586 91.0194 53.0432 91.0938 54.0253 90.9027C54.515 90.8074 55.0241 90.8309 55.5265 90.7529C56.4269 90.613 57.3246 90.4723 58.2189 90.2877C59.4445 90.0347 60.6519 89.7109 61.8464 89.3359C63.6206 88.7775 65.3508 88.0732 67.0211 87.2294C68.019 86.7264 69.0046 86.187 69.9562 85.5931C70.9691 84.9609 71.9498 84.2674 72.9169 83.5584C73.6061 83.0531 74.2607 82.4925 74.9101 81.9299C75.5968 81.3349 76.2817 80.7338 76.9268 80.09C78.1865 78.8332 79.3907 77.5173 80.4568 76.0698C81.0906 75.2092 81.7076 74.3346 82.3243 73.4602C82.4015 73.3508 82.5233 73.2314 82.4257 73.0376H18.8101ZM44.7647 60.8202C44.7285 60.951 44.6921 61.0218 44.6919 61.0926C44.6883 62.4663 44.6882 63.8399 44.6914 65.2136C44.6915 65.2844 44.7277 65.3553 44.7576 65.4646C44.9596 65.495 45.1608 65.5874 45.3902 65.3518C45.4139 64.3569 45.3816 63.3185 45.4011 62.2006C45.5038 62.3144 45.5652 62.3538 45.5863 62.4101C45.8603 63.1408 46.1258 63.875 46.3997 64.6058C46.4967 64.8644 46.6085 65.1171 46.7193 65.3697C46.7378 65.4118 46.7859 65.4395 46.8445 65.498C46.9591 65.4863 47.0954 65.4725 47.2194 65.4599C47.2902 65.3096 47.3537 65.2003 47.3953 65.0824C47.7137 64.1796 48.0251 63.2741 48.348 62.3731C48.3792 62.2861 48.3868 62.1253 48.5741 62.1579C48.6157 63.2505 48.5322 64.3397 48.6176 65.4603C48.8578 65.4946 49.0587 65.5884 49.2636 65.3802C49.2787 65.2859 49.2886 65.1908 49.2933 65.0953C49.2953 63.7979 49.2947 62.5005 49.2916 61.2031C49.2912 61.0838 49.2521 60.9647 49.2303 60.8422C48.9109 60.7723 48.6315 60.7587 48.3456 60.8529C48.2521 61.0446 48.156 61.2206 48.0788 61.4054C48.0016 61.5906 47.9434 61.7848 47.8766 61.9749C47.8097 62.165 47.7418 62.3547 47.6757 62.5451C47.6012 62.7596 47.529 62.9749 47.4543 63.1892C47.388 63.3796 47.3407 63.5819 47.2463 63.7553C47.158 63.9175 47.1912 64.164 46.944 64.2663C46.6 63.7528 46.5166 63.1365 46.291 62.5875C46.054 62.011 45.8909 61.4002 45.6103 60.8202H44.7647ZM57.5831 60.8222C57.5666 61.0744 57.5466 61.2484 57.5454 61.4225C57.5412 62.0068 57.5409 62.5911 57.5445 63.1755C57.5488 63.8862 57.557 64.5968 57.569 65.3074C57.5697 65.3504 57.612 65.3927 57.6421 65.4486C57.841 65.5296 58.0422 65.5696 58.2613 65.349C58.2613 65.1259 58.2611 64.8733 58.2613 64.6206C58.2619 63.9601 58.2603 63.2995 58.2663 62.639C58.267 62.5542 58.2385 62.4276 58.4184 62.4121C59.0946 63.3946 59.5959 64.5235 60.294 65.4563C60.5679 65.5131 60.7792 65.5778 60.993 65.3723C60.9993 65.1674 61.0117 64.9414 61.0123 64.7153C61.0145 63.7753 61.0145 62.8353 61.0121 61.8953C61.0111 61.5912 60.9993 61.287 60.9851 60.9832C60.983 60.9402 60.939 60.8994 60.8996 60.8324C60.7321 60.7977 60.5498 60.7377 60.3334 60.9139C60.2298 61.9291 60.3648 62.9911 60.2459 64.2217C59.5258 62.998 58.8845 61.9143 58.2304 60.8222H57.5831ZM21.8727 65.5218C22.4272 65.5289 22.901 65.4417 23.2335 65.0143C23.7321 64.3734 23.8634 63.6147 23.7895 62.8071C23.7757 62.6571 23.7324 62.5104 23.7078 62.3612C23.5923 61.6603 23.2681 61.1255 22.6056 60.8946C22.0913 60.7153 21.554 60.669 21.0735 60.9729C20.656 61.2369 20.356 61.6184 20.2335 62.1562C20.084 62.8124 20.057 63.4451 20.2301 64.1033C20.4785 65.0474 21.0208 65.5234 21.8727 65.5218ZM40.9382 61.1866C40.323 61.8583 40.3242 62.6652 40.3307 63.4901C40.3319 64.0572 40.5213 64.6058 40.8659 65.0404C41.3805 65.4892 41.8693 65.5548 42.3894 65.525C42.6411 65.5106 42.8704 65.4407 43.0622 65.2873C43.3906 65.0247 43.6525 64.7072 43.8033 64.2809C43.9606 63.8362 43.9375 63.3847 43.9547 62.9293C43.9668 62.5465 43.8838 62.167 43.7141 61.8286C43.3985 61.1816 42.9377 60.7632 42.1826 60.7715C41.6996 60.7768 41.2904 60.9216 40.9382 61.1866ZM85.1512 62.3571C85.1512 62.1357 85.1753 61.9542 85.1463 61.7828C85.0796 61.388 84.8907 61.0655 84.5245 60.913C84.0393 60.711 83.546 60.7187 83.0573 60.9166C82.9671 60.9528 82.8855 61.0096 82.8184 61.0828C82.7512 61.1561 82.7001 61.244 82.6686 61.3405C82.5846 61.5751 82.5136 61.8148 82.4785 61.9234C82.4919 62.4888 82.8269 62.755 82.9886 63.1068C82.7852 63.3626 82.6022 63.5927 82.4207 63.821C82.4207 64.0215 82.4116 64.1991 82.4223 64.3754C82.4612 65.0127 82.8736 65.4615 83.4727 65.5137C83.6635 65.5303 83.8564 65.519 84.0484 65.52C84.3798 65.5218 84.6418 65.3658 84.8852 65.1396C85.16 64.8843 85.2031 64.5321 85.307 64.1822C85.2162 63.9765 85.1431 63.7594 85.0296 63.5692C84.9203 63.3858 84.7692 63.2301 84.6396 63.0662C84.8092 62.8311 84.9672 62.6121 85.1512 62.3571ZM54.7434 60.8254C54.5975 61.2177 54.4565 61.5915 54.3195 61.9669C54.1817 62.3444 54.0462 62.7229 53.9129 63.1022C53.7713 63.5056 53.634 63.9106 53.4938 64.3146C53.3654 64.6848 53.1898 65.0389 53.1049 65.4662C53.3845 65.5219 53.6121 65.5634 53.8276 65.3886C53.9438 65.081 54.0575 64.78 54.1762 64.4658C54.7935 64.4552 55.3855 64.3617 55.9861 64.5289C56.1033 64.8524 56.2131 65.1552 56.3234 65.4594C56.5743 65.5249 56.7971 65.5585 57.0369 65.4426C56.7626 64.6513 56.5062 63.8894 56.2345 63.1335C55.9634 62.3792 55.677 61.631 55.3935 60.8697C55.2902 60.8423 55.2003 60.8028 55.1088 60.798C54.9931 60.7919 54.876 60.8141 54.7434 60.8254ZM67.6986 62.3474C67.6476 62.063 67.6239 61.8131 67.7816 61.509C68.1158 61.3064 68.5139 61.3739 68.8044 61.4144C69.1861 61.572 69.2335 61.8741 69.3587 62.1155C69.4703 62.1269 69.5647 62.1486 69.6574 62.1427C69.7482 62.137 69.8374 62.1033 69.9177 62.0841C69.9574 61.6568 69.9537 61.6378 69.8457 61.4882C69.467 60.9637 68.9825 60.7457 68.3445 60.7683C67.7385 60.7898 67.2716 60.9768 66.9703 61.5336V62.4829C67.1726 62.853 67.4419 63.0596 67.7585 63.1985C68.0238 63.3149 68.2933 63.4222 68.5659 63.5175C68.7958 63.5979 69.0216 63.6773 69.1872 63.8715C69.2957 64.0905 69.2809 64.3183 69.2494 64.5454C69.2393 64.6346 69.2009 64.7175 69.1405 64.7807C69.0801 64.8439 69.0012 64.8837 68.9167 64.8934C68.7023 64.9159 68.4854 64.9104 68.2697 64.9205C67.9191 64.9369 67.668 64.7882 67.5317 64.4381C67.4965 64.3477 67.4509 64.2619 67.4172 64.1894C67.1979 64.149 67.0077 64.1012 66.8483 64.2651C66.7868 64.4487 66.8013 64.6173 66.911 64.7731C67.2294 65.2256 67.6478 65.4883 68.1862 65.5182C68.3301 65.5261 68.4752 65.5117 68.6186 65.523C69.2038 65.5693 69.6409 65.3215 69.9595 64.7813C69.9677 64.6193 69.9856 64.4428 69.983 64.2666C69.9804 64.0912 69.9571 63.9162 69.9463 63.783C69.6222 63.2838 69.2147 62.9998 68.7048 62.8574C68.3579 62.7605 68.0163 62.6352 67.6986 62.3474ZM50.1201 60.7938C50.0772 60.9554 50.0422 61.0263 50.042 61.0972C50.0385 62.4668 50.0388 63.8363 50.0427 65.2058C50.043 65.2974 50.0973 65.3888 50.1278 65.4843C50.3393 65.4965 50.5308 65.5754 50.7044 65.3906C50.7924 65.1326 50.7333 64.8516 50.7512 64.5767C50.7688 64.3053 50.7071 64.0232 50.832 63.7371C50.9601 63.72 51.0752 63.6944 51.1907 63.6914C51.5026 63.6834 51.8158 63.7024 52.1264 63.6797C52.3362 63.6666 52.5399 63.5997 52.7197 63.4846C52.8995 63.3696 53.0502 63.21 53.1585 63.0196C53.2668 62.8291 53.3297 62.6137 53.3415 62.3918C53.3534 62.1699 53.3139 61.9484 53.2265 61.7462C53.1493 61.5624 53.0478 61.3899 52.9627 61.2222C52.6242 60.9783 52.266 60.8207 51.8805 60.8013C51.3073 60.7724 50.7319 60.7938 50.1201 60.7938ZM25.3852 63.7069C25.6577 63.7002 25.8978 63.6731 26.1344 63.6928C26.6684 63.7372 27.1285 63.5691 27.5413 63.2075C27.5836 63.1225 27.6443 63.0375 27.6705 62.9419C27.8313 62.356 27.8475 61.7901 27.4404 61.2902C27.1517 60.9358 26.7629 60.8154 26.3466 60.7961C25.8898 60.7749 25.4313 60.7867 24.9737 60.7937C24.8602 60.7955 24.7472 60.8345 24.6149 60.8601C24.5996 61.0688 24.5772 61.2426 24.5759 61.4164C24.5715 62.0528 24.5711 62.6893 24.5749 63.3257C24.5788 63.9869 24.5871 64.648 24.5998 65.3092C24.6006 65.3522 24.6434 65.3943 24.6735 65.4494C24.8735 65.529 25.0754 65.5701 25.2916 65.3473C25.2916 65.1224 25.2842 64.8686 25.2936 64.6156C25.3038 64.3409 25.2465 64.0583 25.3852 63.7069ZM66.0317 62.8274C65.6207 62.7375 65.2365 62.7968 64.8576 62.7724C64.698 62.7622 64.5401 62.7219 64.3768 62.6945C64.3247 62.2521 64.2903 61.8567 64.4049 61.4414C65.0432 61.3185 65.672 61.4651 66.2828 61.3493C66.3146 61.2508 66.3567 61.1812 66.3543 61.1133C66.351 61.0204 66.314 60.9287 66.2951 60.8514C65.4857 60.7448 64.1724 60.7657 63.6677 60.8938C63.6531 60.979 63.6222 61.0755 63.622 61.1721C63.6187 62.4935 63.6192 63.815 63.6236 65.1364C63.6242 65.2521 63.6815 65.3675 63.7204 65.5129C64.6116 65.5033 65.4749 65.5467 66.3383 65.4804C66.3783 65.4774 66.4151 65.4262 66.4534 65.3973C66.5037 65.247 66.5175 65.1022 66.3735 64.9523C66.0702 64.8676 65.7326 64.9346 65.4003 64.9116C65.0712 64.8888 64.7326 64.9698 64.3829 64.8357C64.3276 64.3475 64.2638 63.883 64.4278 63.433C64.9737 63.2925 65.5128 63.4786 66.0317 63.3053V62.8274ZM75.7242 64.9414C75.8899 65.1063 76.0968 65.3125 76.2847 65.4996C76.8511 65.5054 77.3905 65.6523 77.8337 65.2178C78.5746 63.8639 78.5642 62.359 77.8013 61.0492C77.3453 60.658 76.8134 60.7931 76.3222 60.811C75.5891 61.4269 75.487 61.6415 75.478 62.5661C75.4747 62.8953 75.4871 63.2249 75.4749 63.5537C75.4578 64.0157 75.51 64.4612 75.7242 64.9414ZM39.7119 62.2677C39.7988 61.8094 39.6357 61.5333 39.4247 61.2809C39.1955 61.0067 38.9203 60.8107 38.5606 60.7915C38.3927 60.7826 38.224 60.7909 38.0562 60.7819C37.2686 60.7396 36.7833 61.2111 36.504 61.9043C36.3395 62.3011 36.255 62.7298 36.2561 63.163C36.2572 63.5962 36.3437 64.0245 36.5101 64.4204C36.7954 65.1143 37.2875 65.5749 38.0743 65.5224C38.218 65.5128 38.3651 65.5323 38.506 65.5083C39.0935 65.408 39.5332 65.0993 39.7266 64.4782C39.7714 64.3345 39.7826 64.1779 39.6112 64.0184C39.4704 64.0267 39.2894 64.0374 39.1166 64.0475C38.9921 64.3666 38.9395 64.6806 38.6278 64.8873H37.6965C37.1937 64.5598 37.0312 64.0768 37.0156 63.5165C37.0085 63.2628 37.0017 63.0079 37.0169 62.755C37.0502 62.2011 37.2026 61.7093 37.763 61.388C37.9228 61.388 38.1379 61.3818 38.3525 61.3904C38.4587 61.3995 38.5644 61.4152 38.6688 61.4376C38.9075 61.6258 38.9788 61.869 39.062 62.1075C39.0849 62.173 39.141 62.2255 39.1929 62.2998C39.3559 62.2897 39.5172 62.2798 39.7119 62.2677ZM72.113 65.4765C73.4116 65.5784 74.4358 65.5449 74.8546 65.3909C74.9051 65.2393 74.9177 65.0946 74.7528 64.9413C74.576 64.934 74.3624 64.9221 74.1486 64.9173C73.956 64.913 73.7629 64.9246 73.5707 64.9143C73.3697 64.9034 73.1545 64.9667 72.9114 64.8128C73.2309 64.4394 73.5403 64.1238 73.8423 63.8017C74.2011 63.4232 74.4829 62.971 74.6701 62.473C74.976 61.6523 74.4583 60.8046 73.646 60.7864C73.4775 60.7827 73.3088 60.7895 73.1403 60.785C72.8612 60.7776 72.6274 60.8967 72.4078 61.0632C72.115 61.2851 71.9854 61.6062 71.9191 61.9634C71.9119 62.0021 71.9522 62.0506 71.9833 62.1253H72.4974C72.6167 61.6994 72.8563 61.371 73.3299 61.2823C73.5292 61.3739 73.7905 61.3601 73.9789 61.6133C74.0041 61.6974 74.0217 61.7838 74.0314 61.8715C74.0408 62.0736 74.0342 62.2765 74.0342 62.4273C73.7947 62.9118 73.4908 63.2674 73.173 63.6178C72.8081 64.0201 72.4701 64.4501 72.1276 64.8745C71.9912 65.0436 71.9723 65.2369 72.113 65.4765ZM32.4865 61.425C32.5069 61.6326 32.5322 61.7794 32.5339 61.9265C32.5394 62.3846 32.5341 62.8428 32.5366 63.3009C32.5402 63.9623 32.5442 64.6237 32.5564 65.285C32.5576 65.3501 32.6173 65.4141 32.6459 65.4708C32.8496 65.5125 33.0392 65.566 33.2334 65.3621C33.2382 65.1425 33.248 64.8907 33.2486 64.6389C33.2507 63.7226 33.2471 62.8063 33.2527 61.89C33.2536 61.7456 33.2909 61.6014 33.3162 61.423C33.733 61.404 34.1136 61.3887 34.4939 61.3665C34.536 61.364 34.576 61.3222 34.6196 61.2972C34.713 61.1257 34.715 60.9659 34.5177 60.7902C33.5009 60.8054 32.4433 60.7499 31.3858 60.8255C31.3468 60.8283 31.3111 60.8825 31.2738 60.9127C31.2211 61.0638 31.2092 61.2082 31.37 61.362C31.6908 61.3801 32.0475 61.4002 32.4865 61.425ZM17.7328 61.4676C17.7485 61.6811 17.7745 61.8783 17.7755 62.0756C17.78 62.941 17.775 63.8064 17.7788 64.6718C17.7798 64.8997 17.7957 65.1279 17.8149 65.3551C17.8183 65.3954 17.8717 65.431 17.9021 65.4688C18.0452 65.5178 18.1835 65.5326 18.3378 65.3681C18.3456 65.1826 18.3625 64.9577 18.3632 64.7327C18.3663 63.8164 18.362 62.9001 18.3666 61.9838C18.3675 61.813 18.3969 61.6423 18.4167 61.4336C18.8774 61.4051 19.3006 61.3789 19.6951 61.3545C19.8282 61.1421 19.8316 60.984 19.6878 60.8393C19.1853 60.7824 17.0557 60.766 16.5145 60.8198C16.473 60.8239 16.4354 60.8705 16.3865 60.9039C16.3455 61.044 16.3158 61.1884 16.4575 61.3461C16.8411 61.4762 17.2887 61.3036 17.7328 61.4676ZM30.0103 60.8246C29.9759 60.9524 29.9404 61.0232 29.9402 61.0941C29.9368 62.4671 29.9367 63.84 29.9399 65.2129C29.9401 65.2838 29.9761 65.3546 29.9982 65.4354C30.2092 65.5328 30.4075 65.5669 30.5955 65.4039C30.653 64.869 30.6721 61.6293 30.6181 60.9803C30.6145 60.9368 30.5709 60.8969 30.5274 60.8246H30.0103ZM62.5721 65.4836C62.5886 65.2194 62.6105 65.0223 62.6116 64.825C62.6158 64.0664 62.6161 63.3077 62.6127 62.5491C62.6111 62.0436 62.6069 61.5381 62.595 61.0329C62.5934 60.966 62.5387 60.9005 62.5128 60.8437C62.3039 60.7732 62.1218 60.7676 61.93 61.0124C61.9216 61.174 61.9008 61.3972 61.9 61.6204C61.8965 62.6572 61.8963 63.694 61.8997 64.7308C61.9002 64.9323 61.9123 65.1341 61.9288 65.3349C61.9323 65.3777 61.978 65.4166 62.0211 65.4836H62.5721ZM80.8311 60.8547C80.1804 60.9916 79.6592 61.243 79.1167 61.5109C79.1286 61.6618 79.1398 61.8035 79.1503 61.9369C79.5289 61.9783 79.8085 61.6603 80.193 61.763C80.2118 61.9124 80.2439 62.0582 80.2458 62.2045C80.2525 62.7137 80.2472 63.223 80.2491 63.7322C80.2509 64.2413 80.2527 64.7504 80.263 65.2593C80.2644 65.3273 80.316 65.3943 80.3453 65.464C80.424 65.4779 80.4947 65.5037 80.5633 65.4987C80.6304 65.4938 80.6955 65.4576 80.8307 65.4115C80.8349 63.9281 80.8343 62.4348 80.8311 60.8547Z" fill="#4385F5"></path><path d="M57.2658 15.0281C57.3138 15.1905 57.3532 15.2618 57.3534 15.3333C57.357 16.6696 57.357 18.006 57.3534 19.3423C57.3532 19.4135 57.3134 19.4845 57.2833 19.5845C57.0332 19.6931 56.7626 19.6485 56.5007 19.6489C53.986 19.6526 51.4713 19.6602 48.9568 19.6438C48.4247 19.6404 47.9383 19.7136 47.449 20.1517C47.2385 20.3829 47.2344 20.7645 47.2351 21.1563C47.2394 23.8806 47.2401 26.605 47.2372 29.3293C47.2372 29.6102 47.2372 29.8911 47.2372 30.204C47.0658 30.2456 46.9311 30.3029 46.795 30.3068C46.3559 30.3195 45.9162 30.3093 45.4768 30.3144C45.137 30.3183 44.8019 30.3105 44.4623 30.4107C44.1632 30.499 43.837 30.4815 43.5429 30.4046C43.3491 30.1891 43.4184 29.9452 43.4179 29.7234C43.4123 27.6159 43.4145 25.5084 43.4146 23.4009C43.4146 22.1929 43.4327 20.9846 43.4105 19.7771C43.3747 17.8304 44.6665 16.0157 46.3709 15.3371C46.9162 15.1152 47.4963 15.0035 48.0808 15.0079C50.8639 15.0317 53.6472 15.0182 56.4304 15.0188C56.6969 15.0189 56.9634 15.0246 57.2658 15.0281Z" fill="#4385F5"></path><path d="M48.3655 30.2619C48.3217 30.1732 48.2811 30.1292 48.2807 30.0849C48.2703 28.8252 48.263 27.5655 48.2587 26.3058C48.2633 26.1893 48.2741 26.0731 48.2911 25.9579C48.4764 25.7609 48.6824 25.8164 48.8706 25.8156C50.1412 25.8106 51.4117 25.813 52.6823 25.813C52.9252 25.813 53.1681 25.813 53.3542 25.813C53.5778 25.642 53.543 25.4507 53.5418 25.2762C53.5408 25.1279 53.5151 24.9799 53.4964 24.7926C53.2757 24.7741 53.0868 24.7454 52.8978 24.7446C51.6272 24.7392 50.3567 24.741 49.0861 24.7372C48.846 24.7365 48.6059 24.7213 48.3497 24.7122C48.1923 24.3083 48.2715 23.9204 48.2595 23.5445C48.2463 23.1334 48.2565 22.7215 48.2565 22.31V21.2344C48.433 20.8403 48.6715 20.7081 48.9995 20.7206C49.2679 20.7307 49.537 20.7219 49.8057 20.7219C52.0292 20.7218 54.2527 20.7222 56.4761 20.7232C56.7403 20.7235 57.0095 20.6889 57.3096 20.791C57.3282 20.942 57.3617 21.0884 57.362 21.2348C57.3647 23.0096 57.3667 24.7845 57.3594 26.5592C57.3567 27.2166 57.1533 27.8142 56.8165 28.3648C56.2206 29.3392 55.3728 29.9474 54.3252 30.2604C54.1831 30.2971 54.0369 30.3134 53.8907 30.3087C52.1559 30.3118 50.4211 30.3116 48.6863 30.3082C48.5702 30.308 48.4541 30.2753 48.3655 30.2619Z" fill="#4385F5"></path><path d="M27.7251 39.3841C27.8437 38.9789 27.874 38.6451 28.0944 38.3917C28.7379 38.2915 30.443 38.2963 31.0222 38.4013C31.046 38.4609 31.0934 38.5281 31.0977 38.5981C31.151 39.4704 31.1156 41.3351 31.0367 41.8611C30.4906 42.2563 29.8886 42.6189 29.2207 42.7565C28.597 42.8866 27.9535 42.8667 27.3382 42.6984C26.5079 42.4712 25.8129 42.033 25.2492 41.3605C24.8564 40.8919 24.5689 40.365 24.4866 39.732C24.4472 39.429 24.3474 39.125 24.3606 38.8257C24.4341 37.1569 25.1747 35.8985 26.5637 35.0959C26.8737 34.9168 27.2526 34.8296 27.609 34.7879C28.5268 34.6805 29.4013 34.8854 30.2253 35.3214C30.5795 35.5088 30.577 35.5141 30.933 35.9982C30.8153 36.3111 30.549 36.4942 30.3383 36.7112C30.2629 36.6846 30.207 36.6819 30.1756 36.6513C29.6452 36.134 28.9648 36.0113 28.2957 35.8971C27.8068 35.8198 27.3084 35.9432 26.9034 36.2418C26.4427 36.5741 26.048 37.0016 25.8169 37.5653C25.0575 39.4172 26.1141 41.2732 27.6755 41.5964C28.1674 41.6982 28.6235 41.7572 29.1056 41.5779C29.4634 41.4448 29.7654 41.2541 30.0307 40.8736C30.0381 40.7048 30.0559 40.4769 30.0559 40.2489C30.0559 40.0212 30.0899 39.7861 29.9559 39.528C29.8459 39.4972 29.7116 39.4315 29.5753 39.4266C29.1607 39.4115 28.7454 39.4226 28.3304 39.418C28.1632 39.4161 27.9962 39.3998 27.7251 39.3841Z" fill="#4385F5"></path><path d="M64.6043 37.0127C64.8687 36.8949 65.1246 36.7442 65.5903 36.8348C65.6135 36.8593 65.7295 36.9814 65.8473 37.1054C66.6277 36.3955 67.5603 36.3822 68.3737 37.3132C68.5219 37.3497 68.5839 37.2169 68.6695 37.1365C69.2613 36.5801 70.2362 36.4214 70.912 36.8423C71.3859 37.1375 71.7356 37.568 71.7315 38.2098C71.7285 38.6724 71.7363 39.1352 71.7369 39.5979C71.738 40.3692 71.739 41.1404 71.736 41.9117C71.7353 42.1151 71.7199 42.3185 71.7095 42.5628C71.5351 42.6004 71.3749 42.6348 71.2147 42.6696C71.0748 42.7 70.935 42.7309 70.7459 42.7723C70.7255 42.5388 70.6942 42.3409 70.6933 42.143C70.6883 41.0632 70.6849 39.9834 70.6941 38.9038C70.6971 38.5552 70.6308 38.244 70.3948 37.9478C70.188 37.8751 69.9597 37.7949 69.7656 37.7267C69.3408 37.8155 69.0654 38.0525 68.8265 38.4335C68.8168 38.5891 68.794 38.7921 68.7931 38.9952C68.789 39.9207 68.7931 40.8462 68.7895 41.7717C68.7886 41.9997 68.7701 42.2277 68.7606 42.4342C68.4119 42.7599 68.0587 42.6568 67.665 42.6059C67.6475 42.4034 67.6204 42.2303 67.6197 42.0571C67.6155 41.0545 67.6184 40.0518 67.6165 39.0492C67.6162 38.8696 67.6241 38.6863 67.5946 38.5111C67.5617 38.3069 67.466 38.1198 67.3223 37.9784C67.1786 37.8371 66.9948 37.7494 66.7992 37.7288C66.448 37.6933 66.0103 37.9825 65.8754 38.3548C65.7668 38.6412 65.712 38.947 65.714 39.2554C65.7272 40.1036 65.7207 40.9521 65.7165 41.8004C65.7154 42.0273 65.6942 42.254 65.6847 42.4348C65.5993 42.5116 65.5664 42.566 65.5249 42.5745C65.2433 42.6327 64.9599 42.6813 64.6534 42.7372C64.609 42.5784 64.5473 42.4598 64.547 42.3411C64.5415 40.6444 64.5416 38.9477 64.5474 37.251C64.5476 37.1783 64.5812 37.1056 64.6043 37.0127Z" fill="#4385F5"></path><path d="M50.2997 35.0609C50.6358 34.8014 50.9208 34.7051 51.29 34.8556C51.3074 34.9649 51.3432 35.0863 51.3434 35.2076C51.3467 37.5484 51.347 39.8891 51.3442 42.2299C51.3442 42.3299 51.3199 42.43 51.3041 42.5511C51.0148 42.7091 50.6971 42.671 50.3591 42.7754C50.327 42.4786 50.3005 42.2323 50.2664 41.9168C50.1323 42.0341 50.0359 42.1059 49.9538 42.1927C49.7043 42.4561 49.3822 42.5473 49.0645 42.6851C48.0347 43.132 46.4997 42.3055 45.9205 41.1863C45.3239 40.0335 45.6588 38.1938 46.4772 37.4895C47.2351 36.4686 48.7874 36.3999 49.761 36.9558C49.8669 37.0163 49.9641 37.0935 50.0672 37.1642C50.2901 36.9754 50.2995 36.7235 50.2996 36.4685C50.2999 36.0064 50.2997 35.5443 50.2997 35.0609ZM50.2911 40.354C50.299 40.1842 50.3089 40.0059 50.3154 39.8275C50.344 39.0418 50.0354 38.4691 49.3987 38.0397C48.7057 37.5722 48.0276 37.7523 47.4144 38.1083C47.276 38.1886 47.1818 38.3631 47.0821 38.5058C46.7732 38.9483 46.7703 39.4604 46.7924 39.9777C46.8308 40.8762 47.4885 41.5511 48.3508 41.5717C48.4724 41.5787 48.5944 41.5776 48.7158 41.5682C49.2456 41.5091 49.6993 41.2984 50.0086 40.8176C50.1038 40.6697 50.1921 40.5169 50.2911 40.354Z" fill="#4385F5"></path><path d="M42.0477 36.6235C43.7089 36.5998 44.9957 37.845 45.0023 39.7267C45.0082 41.4224 43.712 42.7809 42.0374 42.7903C40.3305 42.7999 38.9978 41.387 39.0441 39.6831C39.0917 37.9348 40.2487 36.5708 42.0477 36.6235ZM42.031 41.5727C42.8784 41.75 43.9199 40.6248 43.8451 39.6924C43.7522 38.5337 43.0989 37.7834 41.9705 37.7553C40.9716 37.7304 40.2866 38.5352 40.2003 39.7107C40.1331 40.6247 41.1521 41.7488 42.031 41.5727Z" fill="#4385F5"></path><path d="M35.164 36.5918C36.2612 36.5887 37.0872 37.1253 37.7237 38.0041C37.9119 38.2731 38.0382 38.5844 38.0926 38.9135C38.3131 40.2541 37.9918 41.5766 36.7178 42.3494C35.9845 42.7942 35.1957 42.9454 34.3352 42.6549C33.3458 42.321 32.7423 41.6197 32.3569 40.656C32.3058 40.5129 32.2763 40.3622 32.2696 40.2095C32.2542 40.0053 32.2806 39.7971 32.2591 39.5942C32.1357 38.4272 33.286 36.9771 34.304 36.7223C34.5846 36.652 34.877 36.6339 35.164 36.5918ZM36.9651 39.747C36.9521 39.4662 36.997 39.1568 36.8455 38.8696C36.624 38.4395 36.2731 38.0992 35.8479 37.9023C35.3957 37.6868 34.9484 37.6993 34.5171 37.9261C33.872 38.2654 33.4059 38.7505 33.4391 39.5868C33.4442 39.7146 33.4452 39.8429 33.4406 39.9706C33.427 40.3512 33.5747 40.6566 33.8019 40.9443C34.1934 41.4404 34.6831 41.6117 35.2867 41.5796C36.2792 41.5268 36.9583 40.8178 36.9651 39.747Z" fill="#4385F5"></path><path d="M56.8489 35.983C55.9027 36.0854 55 35.9626 54.0685 36.06C54.0408 36.1833 53.9932 36.3013 53.991 36.4203C53.9823 36.9067 53.9874 37.3934 53.9874 37.9149C54.1509 37.9554 54.2848 38.0135 54.4201 38.0174C54.8589 38.03 55.2983 38.0189 55.7373 38.0254C55.9028 38.0278 56.068 38.0533 56.2206 38.0671C56.3432 38.5863 56.3432 38.5863 56.2521 39.1803C55.916 39.321 55.5483 39.2382 55.1913 39.2533C54.828 39.2687 54.4631 39.2447 54.0677 39.2747C54.0373 39.4481 53.9916 39.5922 53.9901 39.7369C53.9824 40.4816 53.9894 41.2265 53.9836 41.9712C53.9821 42.1697 53.9538 42.368 53.9358 42.5922C53.5699 42.6475 53.2394 42.6974 52.8716 42.753C52.8471 42.6252 52.8043 42.5057 52.8041 42.3861C52.8002 40.049 52.7997 37.712 52.8026 35.375C52.8027 35.2735 52.8211 35.1719 52.8338 35.041C52.9165 35.006 53.0022 34.9384 53.0882 34.938C54.2344 34.9329 55.3807 34.9366 56.527 34.9414C56.5718 34.9415 56.6165 34.9741 56.715 35.0125C56.7717 35.2169 56.8455 35.4564 56.9012 35.7004C56.9162 35.766 56.8764 35.8455 56.8489 35.983Z" fill="#4385F5"></path><path d="M76.413 37.5547C76.2667 37.8231 76.0514 38.0426 75.7919 38.1879C75.6366 38.1005 75.476 37.9939 75.3033 37.9174C75.1248 37.8384 74.9346 37.7886 74.7429 37.7238C74.428 37.8074 74.1397 37.927 73.9587 38.3028C74.0187 38.4573 74.0899 38.6404 74.1714 38.8499C74.431 38.933 74.685 39.0139 74.9386 39.0957C75.1942 39.178 75.4623 39.232 75.7022 39.3497C76.2516 39.6192 76.5919 40.0549 76.5776 40.7314C76.5727 40.9619 76.5769 41.1926 76.5769 41.3349C75.9601 42.9904 73.6951 43.0002 72.7695 41.5854C72.8294 41.5019 72.8833 41.3872 72.9695 41.3152C73.1205 41.1889 73.2913 41.0889 73.4881 40.9544C73.7087 41.0845 73.9388 41.2203 74.2182 41.3852H75.1929C75.307 41.2043 75.4124 41.0372 75.5355 40.8421C75.4516 40.6814 75.3917 40.5117 75.2862 40.3838C75.2123 40.2943 75.0803 40.2494 74.9667 40.2067C74.7161 40.1066 74.4609 40.0203 74.2019 39.948C73.6792 39.8138 73.2702 39.5169 72.924 38.9946C72.9148 38.8295 72.8916 38.6013 72.8909 38.373C72.8885 37.5242 73.2799 36.9709 74.0442 36.7176C74.7685 36.4775 75.8522 36.6165 76.413 37.5547Z" fill="#4385F5"></path><path d="M61.6848 42.603C61.3073 42.6565 60.9969 42.7005 60.6729 42.7464C60.6426 42.6796 60.587 42.614 60.5868 42.5484C60.5821 40.7278 60.5809 38.9058 60.5831 37.0825C60.8587 36.7976 61.1639 36.7263 61.5595 36.8502C61.5875 37.1016 61.6149 37.3482 61.6441 37.6106C61.9212 37.5704 61.9023 37.2457 62.0989 37.1427C62.2721 37.0521 62.4289 36.9269 62.5877 36.8204C62.9562 36.7792 63.3165 36.7388 63.7224 36.6934C63.74 36.7664 63.7979 36.8668 63.7758 36.9409C63.6896 37.2309 63.5781 37.5127 63.4736 37.804C63.2829 37.8518 63.1178 37.8849 62.9574 37.935C62.2281 38.1628 61.7814 38.759 61.7527 39.5683C61.7354 40.0552 61.7473 40.5432 61.7462 41.0306C61.7453 41.4412 61.7479 41.8517 61.7417 42.2621C61.7403 42.36 61.7101 42.4574 61.6848 42.603Z" fill="#4385F5"></path><path d="M57.9878 42.5915C57.9032 41.6502 57.9228 37.5362 58.0108 36.9647C58.3168 36.6764 58.6709 36.7856 59.0626 36.8303C59.0812 37.007 59.1099 37.1545 59.1102 37.302C59.1136 38.8436 59.114 40.3853 59.1113 41.9269C59.111 42.1535 59.1518 42.3969 58.9162 42.5904C58.6417 42.689 58.3368 42.694 57.9878 42.5915Z" fill="#4385F5"></path><path d="M31.1689 47.3447C31.2941 47.5874 31.3862 47.7659 31.4787 47.9452C31.4349 48.1068 31.3951 48.2537 31.3541 48.4053C30.9184 48.8554 30.3912 48.616 29.9392 48.6792C29.7077 48.4054 29.7918 48.1367 29.7809 47.8886C29.7685 47.6063 29.7742 47.323 29.7791 47.0402C29.7835 46.7885 29.7464 46.5303 29.8466 46.2689C30.1663 46.151 30.4851 46.1895 30.7948 46.2116C31.2837 46.2465 31.4963 46.6628 31.292 47.147C31.2561 47.2163 31.2149 47.2824 31.1689 47.3447ZM30.2429 48.2685C30.503 48.3841 30.6898 48.3843 30.8763 48.3052C31.0055 48.2504 31.1091 48.0799 31.0631 47.9349C31.0287 47.8265 30.9504 47.6922 30.8595 47.6536C30.6597 47.5687 30.4394 47.537 30.2429 47.7321V48.2685ZM30.2648 47.1888C30.503 47.3082 30.7028 47.2968 30.8777 47.1186C30.9422 47.0528 30.9861 46.9647 31.0457 46.8775C30.9728 46.7534 30.9118 46.6497 30.8373 46.5229C30.6397 46.5397 30.4591 46.555 30.2655 46.5715C30.2453 46.7121 30.2197 46.8088 30.2207 46.9052C30.2217 47.001 30.2494 47.0965 30.2648 47.1888Z" fill="#4385F5"></path><path d="M38.2569 47.042L37.8596 47.7472C37.9728 47.9775 38.1032 48.2427 38.233 48.5067C38.198 48.6927 38.0756 48.6607 37.923 48.627C37.7777 48.3636 37.6213 48.0801 37.4691 47.8042C37.3761 47.7865 37.3055 47.7596 37.2366 47.7637C37.1689 47.7678 37.103 47.8033 37.0007 47.8367C36.9748 48.0796 36.9486 48.3256 36.919 48.6032C36.814 48.6203 36.7274 48.6343 36.636 48.6492C36.5964 48.5582 36.5428 48.4915 36.5417 48.4239C36.5298 47.7154 36.4845 47.0054 36.5729 46.2687C36.9763 46.1525 37.3564 46.1986 37.7067 46.2249C38.0485 46.4033 38.1889 46.6838 38.2569 47.042ZM36.996 47.357C37.3674 47.4784 37.5989 47.3775 37.795 47.1624C37.8044 46.8091 37.7763 46.6589 37.6657 46.6034C37.4367 46.4884 37.2076 46.4539 36.996 46.6424V47.357Z" fill="#4385F5"></path><path d="M55.4347 48.5832C55.3181 48.6199 55.2347 48.6461 55.1228 48.6813C54.9536 48.3805 54.7956 48.1 54.6229 47.7931H54.1825C54.1486 48.0608 54.1176 48.3065 54.0891 48.5319C53.984 48.6778 53.8792 48.6612 53.7725 48.6055C53.6653 48.0029 53.6583 46.9967 53.7584 46.2797C54.1173 46.1306 54.5002 46.2139 54.8437 46.2208C55.1774 46.3628 55.3101 46.629 55.4036 46.9282C55.4066 47.2588 55.1424 47.4595 55.0211 47.7558C55.1533 48.0202 55.2854 48.2846 55.4347 48.5832ZM54.1695 46.5812C54.1387 46.8682 54.048 47.1334 54.2273 47.3795C54.5348 47.4794 54.7659 47.3775 54.9614 47.1621C54.9717 46.6385 54.894 46.5328 54.4795 46.524C54.3882 46.5221 54.2962 46.5567 54.1695 46.5812Z" fill="#4385F5"></path><path d="M52.0812 47.8497C52.2083 47.7546 52.2819 47.6962 52.3596 47.6445C52.375 47.6343 52.4061 47.6504 52.4309 47.6546C52.604 47.8534 52.4044 48.0377 52.4082 48.2391C52.4603 48.3435 52.5157 48.4544 52.5706 48.5645C52.5366 48.5982 52.5044 48.6563 52.4755 48.6545C52.2628 48.6418 52.0584 48.6038 51.8371 48.6591C51.6312 48.7105 51.4045 48.6701 51.209 48.6701C50.614 48.1896 50.6083 48.0832 51.1293 47.347C51.0684 47.1926 51.0038 47.0289 50.9182 46.8119C50.9981 46.6476 51.0941 46.4501 51.1743 46.285C51.9022 46.1528 51.9152 46.1598 52.1549 46.7957C52.0448 46.9969 51.9259 47.2145 51.7897 47.4636C51.8731 47.574 51.9598 47.6889 52.0812 47.8497ZM51.8836 48.3597C51.7609 47.9978 51.6514 47.7623 51.3806 47.6622C51.1535 47.8739 51.1581 48.0764 51.2914 48.327C51.4552 48.3361 51.6181 48.3451 51.8836 48.3597ZM51.5677 47.0459C51.7534 46.8317 51.7534 46.8317 51.6766 46.574C51.5563 46.5096 51.4348 46.5216 51.385 46.6536C51.3164 46.8352 51.3645 46.989 51.5677 47.0459Z" fill="#4385F5"></path><path d="M33.7455 48.6465C33.7409 48.2448 33.7348 47.939 33.7344 47.6331C33.7339 47.1984 33.7375 46.7638 33.7393 46.3174C34.1518 46.132 34.5303 46.1603 34.9066 46.2823C35.1365 46.3569 35.254 46.5506 35.3192 46.8249C35.2618 46.9859 35.194 47.1758 35.1274 47.3623C35.4675 48.0201 35.4511 48.1613 34.9589 48.6435C34.6016 48.7073 34.2193 48.6843 33.7455 48.6465ZM34.7728 48.3674C34.8572 48.2281 34.9319 48.105 35.0103 47.9756C34.9422 47.8482 34.8845 47.7402 34.8341 47.6458C34.564 47.582 34.3301 47.5471 34.0837 47.6866V48.3152C34.3305 48.3339 34.5416 48.3499 34.7728 48.3674ZM34.0719 47.2328C34.2871 47.2406 34.4499 47.2656 34.6081 47.2471C34.7833 47.2265 34.9034 47.0462 34.8925 46.8728C34.8832 46.7255 34.7771 46.5695 34.6371 46.5486C34.4962 46.5333 34.3542 46.5333 34.2133 46.5486C34.1737 46.5514 34.137 46.6001 34.0719 46.6475V47.2328Z" fill="#4385F5"></path><path d="M69.4839 47.1646H69.065C68.8452 47.3661 68.8067 47.6097 68.7978 47.8746C68.7895 48.1206 68.8659 48.3841 68.6909 48.6326C68.6269 48.5855 68.5319 48.5515 68.527 48.5065C68.4684 47.9737 68.4859 47.4412 68.5166 46.8837C68.9646 46.9151 69.359 46.7153 69.7687 46.9171C69.8715 46.9678 70.0426 46.8499 70.1849 46.8295C70.6875 46.7573 70.9809 47.0092 70.9846 47.5527C70.987 47.9026 71.0592 48.2656 70.9182 48.6063C70.8514 48.5951 70.8065 48.5876 70.7159 48.5725C70.7051 48.3328 70.6849 48.082 70.6851 47.8313C70.6853 47.5887 70.6128 47.3824 70.4522 47.1575C70.3457 47.1766 70.209 47.1617 70.1312 47.2259C70.0423 47.3094 69.986 47.4248 69.9734 47.5496C69.9458 47.8788 69.9501 48.2109 69.9429 48.5012C69.8258 48.6632 69.7252 48.6887 69.5594 48.5472C69.5372 48.1404 69.5125 47.6889 69.4839 47.1646Z" fill="#4385F5"></path><path d="M62.9919 48.6403C62.8543 48.3123 62.721 47.9947 62.556 47.6014C62.393 48.0012 62.2623 48.3217 62.1434 48.6132C61.9456 48.6493 61.8476 48.5665 61.81 48.4404C61.6871 48.0277 61.5721 47.6118 61.4722 47.1924C61.4461 47.0828 61.4349 46.9309 61.6002 46.8864C62.007 47.0489 61.7784 47.599 62.0856 47.8344C62.3359 47.5293 62.2157 47.0398 62.607 46.8528C62.949 47.0913 62.7948 47.6036 63.1362 47.8309C63.2402 47.4935 63.3354 47.1846 63.442 46.8389C63.5341 46.9088 63.628 46.9443 63.632 46.9887C63.6693 47.4061 63.5086 47.7834 63.3975 48.171C63.3489 48.3407 63.3358 48.5292 63.1564 48.6188C63.1364 48.6288 63.1104 48.6255 62.9919 48.6403Z" fill="#4385F5"></path><path d="M49.246 47.1244C49.0493 47.1764 48.9253 47.1812 48.8323 47.2402C48.7572 47.2838 48.6939 47.3469 48.6484 47.4233C48.6029 47.4998 48.5766 47.5873 48.572 47.6774C48.5604 47.9324 48.5573 48.1879 48.5452 48.4429C48.5394 48.5652 48.4697 48.6185 48.3539 48.604C48.2191 48.0893 48.2145 46.6999 48.3458 46.1299C48.3905 46.1351 48.4353 46.1403 48.5182 46.1501C48.5418 46.3635 48.5663 46.586 48.5909 46.8088C48.629 46.8295 48.6682 46.8694 48.7051 46.8672C48.8496 46.8588 48.9939 46.8188 49.1372 46.8242C49.2843 46.827 49.425 46.8881 49.5313 46.9953C49.6375 47.1025 49.7015 47.248 49.7105 47.4027C49.7308 47.7825 49.7153 48.1644 49.7153 48.4883C49.585 48.6666 49.4841 48.6886 49.3192 48.5468C49.2983 48.1414 49.2751 47.6906 49.246 47.1244Z" fill="#4385F5"></path><path d="M32.851 46.2002C33.105 46.3693 33.2452 46.5029 33.2846 46.7231C33.3236 46.9413 33.2431 47.1319 33.139 47.3023C33.0352 47.4722 32.9001 47.6224 32.7697 47.7726C32.6375 47.9247 32.5221 48.0811 32.5023 48.2887C32.7663 48.4757 33.1584 48.206 33.3942 48.627C32.856 48.692 32.3701 48.7424 31.8515 48.593C31.8974 48.2489 32.1656 48.1043 32.2955 47.8705C32.4278 47.6323 32.631 47.4378 32.8275 47.1939V46.6626C32.6868 46.5081 32.4687 46.476 32.3308 46.5789C32.2543 46.636 32.1998 46.7252 32.1318 46.7961C32.0845 46.8454 32.0312 46.8881 31.9891 46.926C31.8019 46.8618 31.8197 46.7222 31.8689 46.6122C31.9788 46.3668 32.161 46.2066 32.4346 46.2008C32.5795 46.1976 32.7246 46.2002 32.851 46.2002Z" fill="#4385F5"></path><path d="M61.081 47.86C60.7665 47.8945 60.4843 47.9255 60.212 47.9554C60.1681 48.2426 60.3158 48.3393 60.4959 48.3451C60.6826 48.3511 60.8712 48.2961 61.0619 48.2674C61.189 48.4518 61.0751 48.557 60.939 48.6183C60.6578 48.745 60.3679 48.6648 60.1033 48.658C59.7065 48.3175 59.6625 47.9021 59.7195 47.4564C60.0979 46.8651 60.3799 46.693 60.7586 46.8585C60.8908 46.9219 61.0035 47.0231 61.0838 47.1506C61.2107 47.3515 61.2105 47.5812 61.081 47.86ZM60.8135 47.5222C60.7283 47.1999 60.6612 47.1324 60.4681 47.1506C60.3059 47.1658 60.2623 47.221 60.2063 47.5351C60.3207 47.5506 60.4332 47.5779 60.5455 47.5773C60.6344 47.5768 60.7231 47.5421 60.8135 47.5222Z" fill="#4385F5"></path><path d="M55.6288 47.3706C56.0755 46.8322 56.3544 46.696 56.6882 46.8754C57.0454 47.0673 57.1343 47.3881 57.0161 47.7909C56.7484 48.0167 56.3945 47.812 56.1145 47.9674C56.1321 48.2325 56.1945 48.3465 56.356 48.3428C56.5458 48.3384 56.7348 48.296 56.9358 48.2685C57.0645 48.3665 57.0195 48.4711 56.9134 48.5607C56.8582 48.61 56.7919 48.6435 56.7209 48.6578C56.4557 48.6957 56.1891 48.7159 55.9259 48.6042C55.5891 48.2723 55.5398 47.86 55.6288 47.3706ZM56.0909 47.469C56.2123 47.6378 56.3831 47.5749 56.5398 47.5711C56.6492 47.5684 56.7058 47.5017 56.7126 47.3773C56.6372 47.208 56.5105 47.1161 56.3232 47.1588C56.173 47.1931 56.0722 47.2836 56.0909 47.469Z" fill="#4385F5"></path><path d="M45.0208 47.2562C45.0287 47.7141 45.0713 48.1455 44.994 48.5742C44.7509 48.734 44.5005 48.6744 44.2656 48.6779C43.8731 48.6838 43.8183 48.6274 43.582 48.14C43.6702 47.5578 44.1594 47.6213 44.5252 47.5245C44.5422 47.2327 44.4685 47.1022 44.3117 47.1489C44.137 47.2009 43.9748 47.2992 43.7721 47.3937C43.755 47.2801 43.7411 47.1878 43.729 47.1075C44.371 46.6792 44.5413 46.6961 45.0208 47.2562ZM44.0147 47.9726C44.0465 48.1063 44.0398 48.2304 44.0929 48.2743C44.1397 48.3121 44.1941 48.3381 44.252 48.3505C44.3098 48.3629 44.3695 48.3612 44.4267 48.3457C44.4838 48.3302 44.5368 48.3012 44.5818 48.2609C44.6267 48.2206 44.6624 48.1701 44.6861 48.1132C44.7277 48.0185 44.6414 47.8724 44.5021 47.8239C44.3801 47.8611 44.2444 47.9025 44.0147 47.9726Z" fill="#4385F5"></path><path d="M39.8117 47.8599C39.497 47.8944 39.2147 47.9254 38.9425 47.9553C38.8986 48.2428 39.0461 48.3397 39.2264 48.3453C39.4132 48.3512 39.6018 48.296 39.7895 48.2675C39.8221 48.4859 39.7594 48.6381 39.6042 48.6481C39.3409 48.6651 39.0759 48.6528 38.8275 48.6528C38.4362 48.3176 38.3925 47.9021 38.4507 47.455C38.8282 46.865 39.1101 46.6931 39.4893 46.8585C39.6217 46.9217 39.7345 47.0229 39.8147 47.1505C39.9412 47.3515 39.9413 47.5813 39.8117 47.8599ZM39.5433 47.4864C39.5674 47.315 39.4848 47.2234 39.371 47.1831C39.2844 47.1508 39.1898 47.1512 39.1034 47.1842C38.9797 47.2444 38.8453 47.3346 38.9747 47.5302C39.169 47.5934 39.366 47.6367 39.5433 47.4864Z" fill="#4385F5"></path><path d="M43.2451 48.3275C43.2265 48.4016 43.2287 48.4633 43.2004 48.4948C42.9411 48.7839 42.6184 48.7225 42.3225 48.6136C42.0815 48.525 41.9462 48.3004 41.9454 48.0135C41.945 47.8603 41.9338 47.7055 41.9507 47.5542C41.9977 47.1322 42.2944 46.8341 42.6638 46.8217C43.0064 46.8102 43.2927 47.0423 43.3918 47.4405C43.4199 47.5532 43.3858 47.6831 43.3805 47.7997C43.0298 48.0228 42.6292 47.7791 42.3134 47.9906C42.2882 48.2476 42.4363 48.3358 42.6152 48.349C42.8214 48.3642 43.0304 48.3367 43.2451 48.3275ZM42.9271 47.2016C42.6138 47.0945 42.4322 47.147 42.3478 47.4131C42.3367 47.4479 42.3661 47.497 42.3861 47.5766C42.557 47.5641 42.7343 47.5512 42.9271 47.5372V47.2016Z" fill="#4385F5"></path><path d="M40.3475 47.6909C40.3475 47.4709 40.3295 47.3171 40.3541 47.1712C40.3741 47.072 40.4271 46.9835 40.5035 46.9216C40.7188 46.7609 40.9743 46.7844 41.2069 46.8492C41.4205 46.9088 41.5932 47.0567 41.6056 47.3226C41.4605 47.4754 41.3369 47.4294 41.2255 47.2985C41.0734 47.1198 40.9035 47.0951 40.6678 47.2321C40.704 47.3199 40.7167 47.4423 40.7761 47.4778C40.9426 47.5771 41.1299 47.6372 41.3064 47.719C41.4926 47.8053 41.6573 47.9223 41.6354 48.1696C41.6154 48.3956 41.467 48.54 41.2852 48.6263C40.9204 48.7994 40.5137 48.6728 40.2597 48.3199C40.2353 48.2861 40.2473 48.2231 40.2422 48.1711C40.3581 48.0434 40.4584 48.122 40.5529 48.2038C40.738 48.3641 40.9308 48.4252 41.1432 48.2835C41.2017 48.1227 41.1297 48.0224 41.0124 47.9669C40.8155 47.8736 40.6107 47.7988 40.3475 47.6909Z" fill="#4385F5"></path><path d="M58.6584 36.3019C58.351 36.1183 58.1846 35.8982 58.0209 35.6807C57.9618 35.5984 57.9298 35.4981 57.9297 35.395C57.9296 35.2918 57.9615 35.1914 58.0204 35.1091C58.18 34.8868 58.3681 34.6891 58.5794 34.5215C58.9321 34.7039 59.0037 35.0909 59.2558 35.351C59.1023 35.7209 58.7949 35.9415 58.6584 36.3019Z" fill="#4385F5"></path><path d="M65.167 46.5618V47.1527C65.2362 47.2003 65.2725 47.2387 65.316 47.2529C65.5645 47.3345 65.8485 47.2088 66.1158 47.3913C66.0609 47.4663 66.0271 47.5595 65.9824 47.5656C65.742 47.5989 65.4989 47.6105 65.2534 47.6298C65.0413 47.905 65.1946 48.2395 65.0882 48.5491C65.045 48.5664 64.9843 48.5909 64.9217 48.6161C64.8018 48.0938 64.7869 47.0859 64.8843 46.3234C65.3292 46.1627 65.6406 46.155 66.2181 46.2903C66.2154 46.3373 66.2126 46.3844 66.2072 46.4765C65.8829 46.5031 65.5515 46.5302 65.167 46.5618Z" fill="#4385F5"></path><path d="M47.931 47.4843C47.7374 47.4081 47.6502 47.3845 47.5731 47.3409C47.4695 47.2824 47.3813 47.1838 47.2729 47.1472C47.1151 47.094 46.8992 47.2209 46.8505 47.3717C46.769 47.6157 46.7686 47.8816 46.8493 48.126C46.8978 48.2759 47.1033 48.3954 47.2723 48.3539C47.3863 48.326 47.491 48.2557 47.5992 48.203C47.6811 48.1632 47.7621 48.1214 47.8843 48.0599C47.8898 48.183 47.918 48.2655 47.8916 48.3169C47.7656 48.5626 47.5647 48.6751 47.2946 48.6861C46.9753 48.699 46.7163 48.6137 46.508 48.2116C46.506 47.9996 46.4836 47.6928 46.5059 47.3896C46.529 47.0746 46.7977 46.8286 47.1013 46.8218C47.4657 46.8136 47.7795 46.9087 47.931 47.4843Z" fill="#4385F5"></path><path d="M57.4853 46.8086C57.823 47.1635 57.8238 47.6037 58.0333 48.0256C58.186 47.6088 58.3154 47.2558 58.4558 46.8726C58.5354 46.8657 58.6207 46.8584 58.7533 46.8469C58.6291 47.4087 58.4566 47.9573 58.2379 48.4862C58.1852 48.6159 58.0864 48.681 57.8938 48.6253C57.6606 48.1341 57.4938 47.5831 57.3757 47.0142C57.3683 46.9784 57.4189 46.9294 57.4853 46.8086Z" fill="#4385F5"></path><path d="M67.0207 48.6147C66.8673 48.6245 66.7803 48.6301 66.7144 48.6343C66.5624 48.4349 66.5479 47.8191 66.6571 46.905C66.7293 46.8866 66.8148 46.8647 66.9315 46.835C67.1225 47.4125 66.9996 47.9717 67.0207 48.6147Z" fill="#4385F5"></path><path d="M59.0459 46.8672H59.3254C59.4781 47.4245 59.3926 47.9819 59.3834 48.5084C59.277 48.6598 59.177 48.692 59.0557 48.5917C58.9354 48.434 58.9269 47.6952 59.0459 46.8672Z" fill="#4385F5"></path><path d="M46.3493 46.9728C46.1495 47.1573 45.9904 47.304 45.8088 47.4716C45.7928 47.7905 45.7778 48.1178 45.759 48.4448C45.7519 48.5682 45.6809 48.6175 45.567 48.6037C45.4361 48.0984 45.4299 47.5118 45.5546 46.8703C45.7809 46.8703 46.014 46.8692 46.2471 46.8725C46.2647 46.8728 46.2818 46.9051 46.3493 46.9728Z" fill="#4385F5"></path><path d="M67.5103 46.8791C67.7779 46.8791 68.0123 46.878 68.2466 46.8816C68.2612 46.8818 68.2753 46.9183 68.2988 46.9506C68.2631 47.2075 67.9537 47.1002 67.8197 47.3953C67.7972 47.5054 67.7809 47.6169 67.7709 47.729C67.7536 47.9849 67.758 48.2426 67.7354 48.4978C67.7312 48.5446 67.6416 48.583 67.5846 48.6311C67.4317 48.175 67.4194 47.8995 67.5103 46.8791Z" fill="#4385F5"></path><path d="M67.0331 46.283C66.9424 46.391 66.9069 46.4708 66.8566 46.483C66.8233 46.4883 66.7894 46.4858 66.7572 46.4755C66.725 46.4652 66.6953 46.4476 66.6704 46.4237C66.6481 46.3987 66.6897 46.2529 66.7154 46.2487C66.7971 46.2352 66.8849 46.2627 67.0331 46.283Z" fill="#4385F5"></path><path d="M59.3591 46.37C59.3177 46.4074 59.2727 46.4803 59.2208 46.4863C59.1608 46.4931 59.0947 46.441 59.0312 46.4145C59.0594 46.3541 59.073 46.2647 59.1187 46.2392C59.2152 46.1855 59.3021 46.228 59.3591 46.37Z" fill="#4385F5"></path><path d="M53.2214 79.4882C53.4636 79.4463 53.6765 79.3849 53.8911 79.3776C54.2815 79.3644 54.5537 79.6122 54.5754 80.0135C54.6036 80.4822 54.6014 80.9525 54.5689 81.4209C54.3827 81.6095 54.231 81.6154 54.0338 81.4666C53.8894 81.0077 54.0511 80.4831 53.9409 80.0047C53.8837 79.9622 53.8426 79.9066 53.808 79.9107C53.6992 79.9285 53.5915 79.9528 53.4853 79.9837C53.315 80.4915 53.4824 80.9932 53.3597 81.4395C53.1987 81.6108 53.0477 81.6161 52.888 81.4932C52.8657 81.449 52.8259 81.4057 52.8238 81.3606C52.8028 80.9031 52.7879 80.4453 52.7728 80.0287C52.6209 79.854 52.4824 79.8705 52.2962 79.943C52.1156 80.4068 52.2997 80.9341 52.1839 81.424C52.0593 81.6034 51.9039 81.607 51.7316 81.5227C51.7045 81.481 51.6551 81.4403 51.6537 81.3978C51.6378 80.9115 51.6251 80.425 51.6211 79.9385C51.6199 79.7897 51.648 79.6406 51.6666 79.453C52.2145 79.3667 52.7338 79.3046 53.2214 79.4882Z" fill="#4385F5"></path><path d="M39.8138 81.0644H40.5276C40.5541 80.9117 40.5783 80.7718 40.6068 80.6074C40.4288 80.5396 40.2754 80.4812 40.0907 80.4108C40.0821 80.3251 40.0726 80.2313 40.0613 80.1192C40.428 79.941 40.7758 79.9938 41.1475 80.0666C41.2752 80.4375 41.2094 80.7913 41.2025 81.1223C40.9646 81.6017 40.5356 81.6891 40.1326 81.6864C39.7465 81.6838 39.3629 81.5213 39.1347 81.1385C38.9132 80.7656 38.821 80.3234 38.8739 79.887C38.9685 79.0047 39.3988 78.5624 40.2081 78.6099C40.305 78.6156 40.4015 78.6283 40.4986 78.6378C40.8274 78.8358 41.0951 79.0772 41.1616 79.547C41.0348 79.6022 40.9121 79.6555 40.7713 79.7168C40.6765 79.5897 40.608 79.4877 40.5296 79.3947C40.2477 79.0601 40.1925 79.0547 39.689 79.3063C39.4409 79.8749 39.3246 80.4495 39.8138 81.0644Z" fill="#4385F5"></path><path d="M47.1344 78.5611C47.231 78.5244 47.2957 78.4845 47.363 78.4784C47.4322 78.4723 47.504 78.4993 47.5825 78.5131C47.6155 78.5816 47.6698 78.6458 47.6761 78.7148C47.7287 79.2946 47.698 80.998 47.6276 81.5137C47.3184 81.5718 46.9933 81.6329 46.696 81.6888C46.126 81.5963 45.903 81.1947 45.8004 80.685C45.7186 80.2791 45.8643 79.9265 46.0871 79.6161C46.1662 79.506 46.3214 79.4324 46.4551 79.3959C46.6164 79.3519 46.7918 79.3651 47.002 79.3508C47.0302 79.2101 47.0621 79.0686 47.0863 78.9257C47.107 78.8038 47.119 78.6803 47.1344 78.5611ZM47.0099 81.0616C47.1191 80.2949 47.1122 80.0943 46.9646 79.9224H46.5915C46.3051 80.3338 46.3101 80.6979 46.6133 81.0616H47.0099Z" fill="#4385F5"></path><path d="M42.4828 81.7118C42.3891 81.6846 42.2949 81.6615 42.2032 81.63C41.3692 81.344 41.1139 80.3704 41.689 79.6642C41.7363 79.6054 41.7944 79.5572 41.8597 79.5224C42.5127 79.1891 43.2579 79.3375 43.4175 80.2725C43.5146 80.8406 43.2639 81.3338 42.7633 81.6028C42.672 81.645 42.5783 81.6814 42.4828 81.7118ZM42.7787 80.8718C42.7903 80.7407 42.8224 80.5672 42.8177 80.3947C42.8061 79.9723 42.6882 79.8885 42.2101 79.9325C41.9644 80.3581 41.9373 80.4116 42.0093 80.6869C42.0452 80.8241 42.1411 80.944 42.194 81.0425C42.4365 81.1236 42.6129 81.0957 42.7787 80.8718Z" fill="#4385F5"></path><path d="M45.0862 79.4259C45.5467 79.7591 45.6965 80.203 45.6109 80.7236C45.5232 81.2577 45.2064 81.5871 44.6597 81.7013C44.3625 81.6187 43.9932 81.5926 43.8067 81.2418C43.6663 80.9779 43.5078 80.6818 43.5881 80.3674C43.7442 79.7558 43.9582 79.1956 45.0862 79.4259ZM44.3846 81.0331C44.8866 81.0863 45.0038 80.9993 45.0211 80.58C45.0231 80.5297 45.0236 80.4792 45.0222 80.4289C45.0091 79.9613 44.8706 79.8593 44.3661 79.9582C44.1027 80.3239 44.1136 80.6839 44.3846 81.0331Z" fill="#4385F5"></path><path d="M60.9711 81.7055C60.5439 81.6207 60.2481 81.4079 60.0615 81.0549C59.9257 80.7981 59.9329 80.4975 59.9993 80.2297C60.1949 79.4412 60.5673 79.2542 61.3101 79.4036C61.7685 79.6045 61.9372 80.0106 62.0092 80.5291C61.9516 80.7116 61.8919 80.9322 61.8113 81.144C61.7673 81.2594 61.6879 81.36 61.6146 81.4838C61.388 81.5619 61.1603 81.6403 60.9711 81.7055ZM61.431 80.4627C61.3444 80.2833 61.2598 80.1078 61.16 79.9009C61.0108 79.921 60.8567 79.9024 60.7501 79.9686C60.6668 80.0202 60.6274 80.1726 60.5966 80.2885C60.5717 80.3824 60.5836 80.4889 60.5878 80.5894C60.6053 81.0068 60.7316 81.0948 61.2466 81.0187C61.302 80.8516 61.3637 80.6654 61.431 80.4627Z" fill="#4385F5"></path><path d="M55.79 81.1935C55.8962 81.1406 56.0004 81.0887 56.1013 81.0385C56.0266 80.7956 55.8324 80.7838 55.6861 80.7066C55.5568 80.6385 55.4041 80.6147 55.2829 80.5355C54.8985 80.2844 54.893 79.7931 55.261 79.5146C55.6405 79.2275 56.3021 79.3437 56.5667 79.7441C56.6428 79.8591 56.6414 80.0344 56.5423 80.0875C56.4646 80.1292 56.35 80.1563 56.2744 80.1265C56.1411 80.074 56.0318 79.9547 55.8989 79.9C55.8299 79.8716 55.7319 79.9214 55.5954 79.9447C55.6745 80.0538 55.7037 80.1342 55.7566 80.1596C55.9328 80.244 56.118 80.3078 56.299 80.3813C56.5201 80.471 56.6569 80.6405 56.7315 80.9388C56.6763 81.0764 56.6026 81.2598 56.5228 81.4585C56.2846 81.5472 56.0579 81.6316 55.8587 81.7057C55.1037 81.4898 55.1037 81.4898 54.9297 80.9385C55.0241 80.886 55.1241 80.8303 55.2486 80.7611C55.3505 80.8586 55.4329 80.9476 55.5255 81.0228C55.6107 81.0847 55.699 81.1417 55.79 81.1935Z" fill="#4385F5"></path><path d="M49.5413 78.5218C49.5548 78.6853 49.5663 78.8251 49.5765 78.949C49.4997 78.9907 49.4575 79.0339 49.4176 79.0316C49.2738 79.0233 49.129 78.977 48.9879 78.9888C48.8646 78.9991 48.7656 79.087 48.7661 79.2521C48.8367 79.4387 49.2252 79.3884 49.0919 79.7598C48.9947 79.8262 48.8761 79.9074 48.7206 80.0138C48.7206 80.2508 48.7232 80.5056 48.7199 80.7603C48.7169 80.9897 48.7075 81.219 48.7019 81.4137C48.5409 81.6144 48.3859 81.6122 48.2105 81.5103C48.0479 81.2886 48.1258 81.0223 48.1135 80.7724C48.1022 80.542 48.1112 80.3105 48.1112 80.0712C48.0106 79.9282 47.9125 79.7889 47.8203 79.6578C47.937 79.4395 48.047 79.2482 48.1438 79.0499C48.3563 78.6148 48.6783 78.3934 49.1524 78.4571C49.2701 78.4729 49.387 78.4959 49.5413 78.5218Z" fill="#4385F5"></path><path d="M58.418 79.4125C58.8159 79.3746 59.1318 79.298 59.4228 79.4997C59.5975 79.6206 59.638 79.7047 59.7666 80.1745C59.6708 80.2236 59.5693 80.2756 59.4416 80.341C59.295 80.1847 59.1632 80.0441 59.0085 79.8792C58.9019 79.9068 58.7745 79.9104 58.6833 79.9727C58.6141 80.02 58.56 80.1395 58.5536 80.2311C58.5377 80.4565 58.5531 80.6843 58.556 80.915C58.6919 80.9911 58.7944 81.0485 58.8466 81.0777C59.1799 81.0885 59.3398 80.5873 59.6974 80.9074C59.6948 81.4734 59.2798 81.5741 58.9104 81.7066C57.9794 81.3583 57.8702 81.1594 57.9655 79.9432C58.0903 79.7968 58.25 79.6096 58.418 79.4125Z" fill="#4385F5"></path><path d="M50.364 79.4429C50.7119 79.3736 51.0685 79.3662 51.4187 79.4211C51.444 79.532 51.465 79.6245 51.4933 79.7486C51.3138 79.8459 51.1482 79.9358 50.9849 80.0243C50.9592 80.1086 50.9211 80.1797 50.918 80.2524C50.9009 80.6572 50.8922 81.0624 50.882 81.4217C50.6912 81.609 50.5413 81.6144 50.3883 81.4908C50.2683 81.3363 50.2535 80.3859 50.364 79.4429Z" fill="#4385F5"></path><path d="M49.8164 81.5414H49.3499C49.2041 80.837 49.3044 80.1637 49.2886 79.4477C49.4869 79.4314 49.621 79.4205 49.7471 79.4102C49.9146 79.8827 49.9377 80.5464 49.8164 81.5414Z" fill="#4385F5"></path><path d="M57.6324 81.2144C57.6329 81.5338 57.4773 81.5945 57.2851 81.6382C57.2343 81.607 57.1528 81.5848 57.1169 81.5297C57.0053 81.358 57.0273 81.1934 57.1813 81.059C57.3819 80.9624 57.5004 81.0926 57.6324 81.2144Z" fill="#4385F5"></path><path d="M21.2394 61.0179C21.8454 61.0051 22.2111 61.3461 22.2994 61.9455C22.3216 62.0967 22.327 62.2538 22.371 62.3978C22.5482 62.9772 22.3636 63.5106 22.1792 64.0359C22.0329 64.4526 21.6817 64.5698 21.2946 64.5831C20.9033 64.5965 20.5613 64.474 20.3796 64.0836C19.9803 63.2256 19.9831 62.3574 20.3867 61.5003C20.5351 61.1852 20.8434 61.0251 21.2394 61.0179Z" fill="#4385F5"></path><path d="M41.3376 61.043H42.1045C42.6259 61.326 42.7875 61.8225 42.8279 62.3814C42.8486 62.6634 42.8485 62.9467 42.8276 63.2287C42.7875 63.7569 42.6424 64.2361 42.1214 64.5542H41.3402C40.8468 64.2661 40.5932 63.8113 40.6183 63.1829C40.6294 62.9518 40.629 62.7203 40.6172 62.4893C40.5804 61.8681 40.7989 61.3907 41.3376 61.043Z" fill="#4385F5"></path><path d="M84.0221 64.6973C83.8428 64.6317 83.6411 64.5579 83.457 64.4905C83.2377 64.18 83.2008 63.8743 83.3079 63.5365C83.336 63.4393 83.3829 63.3493 83.4458 63.2722C83.5086 63.1951 83.5859 63.1326 83.6729 63.0886C84.0417 62.8995 84.547 63.1116 84.7049 63.5071C84.7929 63.7276 84.8132 63.9563 84.7251 64.1723C84.601 64.4764 84.3428 64.6119 84.0221 64.6973Z" fill="#4385F5"></path><path d="M84.5744 61.1701C84.6897 62.2541 84.4955 62.479 83.6391 62.3459C83.4122 62.1141 83.25 61.8283 83.3432 61.4749C83.4287 61.151 83.7014 61.0122 84.0497 60.8975C84.194 60.9724 84.3824 61.0703 84.5744 61.1701Z" fill="#4385F5"></path><path d="M54.1719 63.429C54.2851 62.752 54.5276 62.1612 54.7961 61.5752C54.851 61.6118 54.9135 61.629 54.9264 61.6656C55.1019 62.1634 55.274 62.6626 55.4363 63.1652C55.4561 63.2267 55.4144 63.3102 55.396 63.4128C55 63.5421 54.6049 63.5197 54.1719 63.429Z" fill="#4385F5"></path><path d="M51.9958 62.704C51.7685 62.7133 51.5282 62.73 51.2879 62.7311C51.0482 62.7323 50.8085 62.7178 50.5455 62.7094C50.3958 62.1734 50.4689 61.6692 50.4862 61.1293C50.9901 60.96 51.4815 60.9312 51.957 61.1913C52.3269 61.3936 52.4514 61.7474 52.3286 62.165C52.2993 62.2629 52.2577 62.3562 52.2049 62.4424C52.1539 62.5263 52.083 62.5968 51.9958 62.704Z" fill="#4385F5"></path><path d="M24.6824 61.0579C25.311 61.0275 25.8766 60.8804 26.3375 61.3714C26.4494 61.6692 26.4201 61.9731 26.3909 62.2654C26.2502 62.5892 26.0249 62.7431 25.6954 62.7342C25.3827 62.7257 25.0698 62.729 24.7382 62.727C24.5589 62.1673 24.6347 61.6475 24.6824 61.0579Z" fill="#4385F5"></path><path d="M76.3174 64.2117C76.2136 63.5868 76.0687 63.0107 76.1332 62.4167C76.1716 62.0629 76.2507 61.7139 76.2982 61.4398C76.485 61.1074 76.7224 60.9879 77.0203 60.8945C77.1714 60.9767 77.3407 61.0687 77.4851 61.1472C77.6777 61.5597 77.7627 61.9522 77.7405 62.3733C77.7278 62.6301 77.7277 62.8874 77.7402 63.1442C77.7603 63.5885 77.7011 64.0129 77.4813 64.448C77.3659 64.5184 77.2199 64.6074 77.1 64.6805C76.8491 64.6964 76.6942 64.601 76.3174 64.2117Z" fill="#4385F5"></path></g><defs><clipPath id="clip0_7351_52131"><rect width="104" height="97" fill="white"></rect></clipPath></defs></svg>