<svg xmlns="http://www.w3.org/2000/svg" viewBox="0 0 5040 5040"><defs><style>      .cls-1 {        font-family: Inter-Black, Inter;        font-size: 286.8px;        font-weight: 800;      }      .cls-1, .cls-2 {        fill: #fff;      }      .cls-3 {        fill: none;        stroke: #23ad0f;        stroke-miterlimit: 10;        stroke-width: 40px;      }      .cls-4 {        fill: #23ad0f;      }    </style></defs><g><g id="Layer_6"><circle class="cls-4" cx="2524.6" cy="2520" r="1496.8"></circle><g><path class="cls-2" d="M3262.7,2005.1c-40.8-96.6-99.3-183.3-173.8-257.7-23.7-23.7-48.5-45.7-74.6-66.1-8.2-6.5-16.6-12.7-25.1-18.8-49-35.4-101.9-65.1-158.1-88.9-26.8-11.3-54-21.2-81.6-29.5-10.6-3.2-21.3-6.2-32.1-8.9-65.5-16.8-133.1-25.3-201.9-25.3s-141.3,9.1-209,27.2c-10.7,2.9-21.4,5.9-32,9.3-25.2,7.8-50,16.9-74.5,27.3-58.5,24.7-113.4,56-164.2,93.3-8.4,6.1-16.6,12.5-24.8,19-23.9,19.1-46.9,39.6-68.8,61.5-74.5,74.5-132.9,161.2-173.8,257.7-42.3,100-63.7,206.2-63.7,315.6s21.4,215.7,63.7,315.6c40.8,96.6,99.3,183.3,173.8,257.7,74.5,74.5,161.2,132.9,257.7,173.8,100,42.3,206.2,63.7,315.6,63.7s215.7-21.4,315.6-63.7c96.6-40.8,183.3-99.3,257.7-173.8,74.5-74.5,132.9-161.2,173.8-257.7,42.3-100,63.7-206.2,63.7-315.6s-21.4-215.7-63.7-315.6ZM2515.5,3100.5c-430,0-779.8-349.8-779.8-779.8s115.1-466.9,294.4-609.9c8.1-6.5,16.4-12.8,24.8-19,72-52.9,153.4-93.7,241.2-119.5,11.6-3.4,23.3-6.5,35.1-9.4,59.1-14.4,120.8-22,184.3-22s120.5,7,177.5,20.4c11.8,2.8,23.5,5.8,35.1,9.1,88.3,25,170.2,65.3,242.8,117.7,8.4,6.1,16.7,12.3,24.9,18.7,182.2,142.9,299.5,364.9,299.5,613.9,0,430-349.8,779.8-779.8,779.8Z"></path><path class="cls-2" d="M2347.7,3018.6c-85.6-34.7-164.2-96.3-229.6-181.5-107-139.4-165.9-324.9-165.9-522.4s58.9-383,165.9-522.4c64.7-84.3,142.3-145.5,226.9-180.4,12.7-5.3,25.6-9.9,38.6-14-12.3-6.1-23.9-13.1-34.6-20.9-11.1,4.1-22.1,8.7-33,13.7-11.5,5.3-22.9,11-34.2,17.2-70.7,38.9-134,94.5-188.4,165.3-54.1,70.5-96.6,152.5-126.2,243.8-30.6,94.3-46.1,194.4-46.1,297.6s15.5,203.3,46.1,297.6c29.6,91.3,72.1,173.3,126.2,243.8,54.3,70.8,117.7,126.4,188.4,165.3,12.4,6.8,24.9,13.1,37.6,18.8,10.8,4.9,21.8,9.3,32.8,13.4,1.5-1.1,3-2.3,4.5-3.4,9.1-6.6,18.9-12.6,29.1-18.1-12.9-3.9-25.6-8.4-38.2-13.5ZM3060.9,2017.2c-29.6-91.3-72.1-173.3-126.2-243.8-54.3-70.8-117.7-126.4-188.4-165.3-12.5-6.9-25.2-13.2-37.9-18.9-10.9-4.9-21.9-9.4-33-13.4-10.7,7.9-22.2,15-34.4,21.2,13,3.9,25.9,8.5,38.7,13.6,85.9,34.6,164.8,96.3,230.4,181.8,107,139.4,165.9,324.9,165.9,522.4s-58.9,383-165.9,522.4c-63.9,83.2-140.3,143.9-223.7,179-12.5,5.3-25.2,10-38,14.1.1,0,.2.1.4.2,12,6.1,23.3,13,33.7,20.7,11-4.2,21.8-8.8,32.6-13.8,10.5-4.9,20.9-10.2,31.2-15.9,70.6-38.9,134-94.6,188.4-165.3,54.1-70.5,96.6-152.5,126.2-243.8,30.6-94.3,46.1-194.4,46.1-297.6s-15.5-203.3-46.1-297.6Z"></path><path class="cls-2" d="M2739.6,1811.8c-33.3-78.3-73.3-136.7-117.3-172.8-10.7-8.7-21.5-16.2-32.6-22.2-24.6,6.8-51,10.5-78.5,10.5s-51-3.3-74.5-9.4c-11.1,6.2-21.9,13.8-32.5,22.6-43.4,36.2-82.7,94.1-115.6,171.4-57.2,134.6-88.7,313.2-88.7,502.9s31.5,368.3,88.7,502.9c33,77.6,72.6,135.7,116.1,171.9,10.4,8.6,21.1,16,31.9,22.1,2.6-.8,5.2-1.5,7.8-2.1,17.3-4.5,35.5-7.5,54.2-8.7-19.3-2.6-38.4-10.2-57.1-22.6-11.1-7.3-22-16.3-32.7-27-34.1-34-65-83-91.6-145.6-55.6-130.8-86.3-305.1-86.3-490.8s30.6-359.9,86.3-490.8c26.6-62.7,57.5-111.7,91.6-145.7,10.9-10.8,21.9-19.9,33.1-27.3,23.6-15.6,47.7-23.4,72.2-23.4s47.6,7.5,70.7,22.4c11.7,7.5,23.2,17,34.6,28.3,34.1,34,65,83,91.6,145.7,55.6,130.8,86.2,305.1,86.2,490.8s-30.6,360-86.2,490.8c-26.6,62.7-57.5,111.7-91.6,145.6-9.9,9.9-20,18.4-30.2,25.4-18.7,12.8-37.7,20.8-57,23.9,21.7.9,42.6,4.2,62.5,9.4,0,0,0,0,0,0,10.8-6.4,21.4-14,31.7-22.8,42.4-36.3,81-93.5,113.2-169.4,57.2-134.6,88.7-313.2,88.7-502.9s-31.5-368.3-88.7-502.9Z"></path><path class="cls-2" d="M2989.2,1662.5c-4.6,8.6-10.7,17.2-18.3,25.6-2.1,2.3-4.2,4.5-6.5,6.8-23.9,23.9-58.6,45.4-103,64.1-93.3,39.3-217.7,60.9-350.2,60.9s-256.9-21.6-350.2-60.9c-44.4-18.7-79.1-40.3-103-64.1-1-1-2-2-3-3.1-7.9-8.2-14.3-16.5-19.2-24.9-8.4,6.1-16.6,12.5-24.8,19,5.3,8.5,11.8,16.8,19.2,24.9,26.6,28.8,66.7,54.9,118.8,76.8,97,40.9,225.7,63.4,362.3,63.4s265.2-22.5,362.3-63.4c54.5-22.9,95.8-50.5,122.4-80.8,7.3-8.3,13.4-16.8,18.4-25.5-8.2-6.5-16.6-12.7-25.1-18.8Z"></path><path class="cls-2" d="M2717.4,1535.2c-7.2,9.3-15.4,18-24.4,26.1-5.6,5-11.4,9.8-17.6,14.4-10.7,7.9-22.2,15-34.4,21.2-16,8.1-33.2,14.8-51.3,19.8-24.6,6.8-51,10.5-78.5,10.5s-51-3.3-74.5-9.4c-18.8-4.9-36.6-11.6-53.1-19.8-12.3-6.1-23.9-13.1-34.6-20.9-6.2-4.5-12.2-9.2-17.8-14.2-9.1-8-17.4-16.7-24.7-25.9-10.7,2.9-21.4,5.9-32,9.3,6.5,9.1,13.7,17.8,21.7,26.1,6.2,6.4,12.8,12.6,19.9,18.5.7.6,1.4,1.2,2.1,1.8,8.5,7,17.5,13.4,26.9,19.3,18.3,11.6,38.2,21.1,59.2,28.4,12.2,4.3,24.8,7.8,37.8,10.6,22.4,4.8,45.6,7.3,69.3,7.3s50-2.8,73.7-8.2c12.8-2.9,25.3-6.6,37.4-11.1,20.3-7.5,39.6-17,57.4-28.5,8.6-5.5,16.8-11.5,24.6-17.9,1.4-1.2,2.8-2.3,4.2-3.5,7-6,13.6-12.2,19.7-18.7,7.9-8.4,15-17.2,21.4-26.3-10.6-3.2-21.3-6.2-32.1-8.9Z"></path><path class="cls-2" d="M2997,2964.9c-4.6-8.6-10.7-17.2-18.3-25.6-2.1-2.3-4.2-4.5-6.5-6.8-23.9-23.9-58.6-45.4-103-64.1-93.3-39.3-217.7-60.9-350.2-60.9s-256.9,21.6-350.2,60.9c-44.4,18.7-79.1,40.3-103,64.1-1,1-2,2-3,3.1-7.9,8.2-14.3,16.5-19.2,24.9-8.4-6.1-16.6-12.5-24.8-19,5.3-8.5,11.8-16.8,19.2-24.9,26.6-28.8,66.7-54.9,118.8-76.8,97-40.9,225.7-63.4,362.3-63.4s265.2,22.5,362.3,63.4c54.5,22.9,95.8,50.5,122.4,80.8,7.3,8.3,13.4,16.8,18.4,25.5-8.2,6.5-16.6,12.7-25.1,18.8Z"></path><path class="cls-2" d="M2735.9,3056.9c-6.1-6.5-12.7-12.7-19.7-18.7-.4-.3-.7-.6-1.1-.9-1-.9-2-1.7-3.1-2.6-7.8-6.4-16-12.4-24.6-17.9-.3-.2-.7-.4-1-.7-17.5-11.2-36.4-20.5-56.4-27.8-1.2-.4-2.4-.9-3.7-1.3-11-3.9-22.2-7.1-33.8-9.8-1.2-.3-2.3-.5-3.4-.8-22.6-4.9-46.2-7.5-70.2-7.5s-46.9,2.5-69.3,7.3c-2.7.6-5.5,1.2-8.2,1.9-10.1,2.4-19.9,5.3-29.6,8.7-2.4.8-4.8,1.7-7.2,2.6-18.3,6.9-35.8,15.6-52,25.8-1.7,1.1-3.4,2.2-5,3.3-7.6,5-14.8,10.4-21.8,16.1-.7.6-1.4,1.2-2.1,1.8-1.5,1.2-2.9,2.5-4.3,3.7-5.5,4.8-10.7,9.7-15.5,14.8-8,8.3-15.2,17-21.7,26.1,10.6,3.3,21.3,6.4,32,9.3,7.4-9.2,15.6-17.9,24.7-25.9,4.2-3.8,8.7-7.4,13.2-10.8,1.5-1.1,3-2.3,4.5-3.4,9.1-6.6,18.9-12.6,29.1-18.1,1.8-1,3.6-1.9,5.5-2.8,14.2-7.1,29.4-13,45.3-17.6,2.6-.8,5.2-1.5,7.8-2.1,17.3-4.5,35.5-7.5,54.2-8.7,6.7-.5,13.5-.7,20.3-.7s8.9,0,13.2.3c21.7.9,42.6,4.2,62.5,9.4,0,0,0,0,0,0,.9.2,1.8.5,2.7.7,18,5,35.1,11.6,51,19.7.1,0,.2.1.4.2,12,6.1,23.3,13,33.7,20.7.2.2.5.3.7.5,6.2,4.6,12,9.4,17.6,14.4,9,8.1,17.1,16.9,24.4,26.1,10.8-2.7,21.5-5.7,32.1-8.9-6.3-9.1-13.5-17.9-21.4-26.3Z"></path><rect class="cls-2" x="2501.5" y="1658.3" width="27.2" height="1149.1"></rect></g><rect class="cls-4" x="1487.4" y="1891.9" width="2117.4" height="853.3"></rect><g><path class="cls-2" d="M3507.9,2142.2c-18.9-49.6-57.7-93.9-105-125.8-136.4-86.6-344.2-92.8-484.7-14.5-76.6,39.1-127,116.5-142.7,196-28.4,130.8-21.1,286.4,79.7,384.5,117.6,103,288.6,125.8,440.7,83.5,7.2-1.4,30.1-7.1,45.9-15.5l4.5-1.9c47.2-19.6,92.3-51.6,125.9-94.9,77.6-113.4,82.9-283.5,35.7-411.3ZM3260.3,2435.9c-5.3,24.8-22,50.5-48.3,59.8-41.9,18.4-98.6,13.3-137.4-8.2-32.5-22.8-36.7-60.8-40.9-96.9-3.2-71.1-8.3-146.3,11.6-211.4,15.6-40.3,58.6-50.6,97.5-53.6,40.9,0,80.7,6.2,106,39.2,15.7,23.7,14.7,54.6,17.8,82.5-1.1,58.7,4.2,128.8-6.3,188.6Z"></path><path class="cls-2" d="M2017,2500c-34.6-2.1-73.4.9-107-3.2l1-361.9,2.1-3,103.9-1c1.1-58.7,2.1-121.8-1.1-175.3l-395.4-1.1-65.1,1.1c-1,54.6-1,118.5,0,174.2,35.7,1.1,69.2,0,103.9,3.2v350.5l-1,14.4-103.9,2.1c-2.2,57.6-2.2,113.4,0,170.1h462.7v-170.1Z"></path><path class="cls-2" d="M2501.8,2508c-98.7,26.9-205.7,6.4-277-67.9-8.3-10.3-13.6-22.6-22-32.9l-141.6,1c-2.2,83.5-3.2,179.4,0,261.9l157.3-1,2.1-49.5c17.9,8.2,35.7,18.5,53.5,27.7,109.1,45.4,249.6,55.7,357.7,0,78.7-43.2,120.7-126.7,109.1-216.6-11.5-87.5-95.4-167-180.4-188.5l-253.9-73.3-18.8-9.3c-8.4-7.1-13.7-16.4-11.6-27.8,19.9-34,66.1-23.7,100.8-22.7,73.4,10.3,149,35.1,192,102.1,46.1,0,99.7.9,150-1.1,2.1-84.5-.9-158.7-2.1-244.3-47.2-1.1-104.9-1.1-152.1,1.1-2.1,12.2,2,29.7-3.2,42.1l-48.2-25.8c-115.5-48.4-277-53.5-381.9,21.7-68.2,49.4-89.2,138.2-71.3,216.5,13.6,74.2,84.9,128.8,153.2,154.6,93.4,33,190.9,56.8,285.5,88.7,9.4,4.2,21.9,13.5,19.9,24.9,0,9.1-9.5,14.4-16.8,18.4Z"></path></g><path class="cls-3" d="M2524.6,4685.3c-146.7,0-293.4-14.8-436-44-139.2-28.5-276.1-71-406.9-126.3-128.4-54.3-252.2-121.5-367.9-199.7-114.6-77.4-222.3-166.3-320.2-264.2-97.9-97.9-186.8-205.6-264.2-320.2-78.2-115.8-145.4-239.6-199.7-367.9-55.3-130.8-97.8-267.7-126.3-406.9-29.2-142.6-44-289.3-44-436s14.8-293.4,44-436c28.5-139.2,71-276.1,126.3-406.9,54.3-128.4,121.5-252.2,199.7-367.9,77.4-114.6,166.3-222.3,264.2-320.2,97.9-97.9,205.6-186.8,320.2-264.2,115.8-78.2,239.6-145.4,367.9-199.7,130.8-55.3,267.7-97.8,406.9-126.3,142.6-29.2,289.3-44,436-44s293.4,14.8,436,44c139.2,28.5,276.1,71,406.9,126.3,128.4,54.3,252.2,121.5,367.9,199.7,114.6,77.4,222.3,166.3,320.2,264.2,97.9,97.9,186.8,205.6,264.2,320.2,78.2,115.8,145.4,239.6,199.7,367.9,55.3,130.8,97.8,267.7,126.3,406.9,29.2,142.6,44,289.3,44,436s-14.8,293.4-44,436c-28.5,139.2-71,276.1-126.3,406.9-54.3,128.4-121.5,252.2-199.7,367.9-77.4,114.6-166.3,222.3-264.2,320.2-97.9,97.9-205.6,186.8-320.2,264.2-115.8,78.2-239.6,145.4-367.9,199.7-130.8,55.3-267.7,97.8-406.9,126.3-142.6,29.2-289.3,44-436,44ZM2524.6,1026.4c-823.6,0-1493.6,670-1493.6,1493.6s670,1493.6,1493.6,1493.6,1493.6-670,1493.6-1493.6-670-1493.6-1493.6-1493.6Z"></path><g><path class="cls-4" d="M1277.4,1145.8l-78.8,82.4-55.7-53.2c-16.2-15.5-27.1-24.2-32.8-26.3-5.7-2.1-11.4-.1-17.2,5.9-6.5,6.8-8.2,13.4-5,19.9,3.1,6.5,12.8,17.5,29,33l148.8,142.2c15.6,14.9,26.6,23.7,33.1,26.4,6.5,2.7,12.8.9,18.9-5.5,5.9-6.1,7.3-12.4,4.4-18.9-3-6.4-13.2-18.1-30.8-34.9l-40.3-38.5,78.8-82.4,12.5,11.9c33.1,31.7,54.4,56.5,63.9,74.4,9.4,17.9,11.8,39.8,7.1,65.6-4.7,25.8-18.2,50.4-40.4,73.6-23.1,24.2-46.5,39.8-70.3,47.1-23.8,7.2-46,5.9-66.5-3.9s-46.4-29.8-77.8-59.8l-93.6-89.4c-23.1-22.1-39.6-39.4-49.7-52-10-12.6-16.7-27.9-19.9-45.9-3.3-18-1.4-36.8,5.7-56.4,7-19.6,19.1-38.4,36.2-56.3,23.2-24.3,47.1-39.8,71.7-46.5,24.6-6.7,46.3-5.8,65.2,2.8,18.9,8.6,43.3,27.1,73.2,55.7l30.4,29.1Z"></path><path class="cls-4" d="M1323,864.7l159-104.4,48.7,74.1-63.6,41.8,46.1,70.2,59.6-39.1,46.3,70.5-59.6,39.1,53.5,81.4,70-45.9,48.7,74.1-165.3,108.6-243.2-370.3Z"></path><path class="cls-4" d="M1691,650.9l75.7-28.1c50.5-18.7,85.4-29.4,104.7-32.1,19.3-2.7,37.6,2,54.9,14,17.3,12,32.4,35.7,45.6,71.1,12,32.3,16.1,55.5,12.2,69.6-3.8,14.1-17,26.5-39.6,37.4,23.1-2.5,40-.7,50.6,5.5,10.6,6.2,18.1,12.7,22.7,19.5,4.5,6.8,13,26.9,25.4,60.5l40.6,109.6-99.3,36.8-51.2-138c-8.2-22.2-15.1-35.4-20.5-39.4-5.4-4-15.5-3.3-30.3,2.2l69.4,187.3-106.9,39.6-154-415.4ZM1824.3,682.4l34.2,92.4c12-4.5,19.8-9.2,23.4-14.4,3.6-5.1,2-16.8-4.8-35.1l-8.5-22.8c-4.9-13.2-10.4-20.9-16.6-23.3-6.2-2.4-15.5-1.3-27.8,3.3Z"></path><path class="cls-4" d="M2394.2,480.3l10.7,88-67.2,8.1,42.6,351.8-113.2,13.7-42.6-351.8-67,8.1-10.7-88,247.4-30Z"></path><path class="cls-4" d="M2717,489.4l-30.7,442-113.8-7.9,30.7-442,113.8,7.9Z"></path><path class="cls-4" d="M2940.3,522.5l187.1,48-22,85.9-76.6-19.6-20.9,81.4,68.2,17.5-20.9,81.6-68.2-17.5-46.2,180.2-110.5-28.3,110-429.1Z"></path><path class="cls-4" d="M3425.4,692.5l-186.3,402-103.5-48,186.3-402,103.5,48Z"></path><path class="cls-4" d="M3623.2,803.7l154.9,110.3-51.4,72.2-62-44.2-48.7,68.4,58,41.3-48.9,68.7-58-41.3-56.5,79.4,68.2,48.6-51.4,72.2-161.1-114.7,257-360.9Z"></path><path class="cls-4" d="M3956.2,1069.1l56.6,63.9c36.5,41.2,59.3,70.8,68.4,88.7,9.1,17.9,12.6,34.5,10.5,49.8-2,15.3-7.6,28.7-16.6,40.1-9,11.4-29.3,31-60.7,58.8l-116.1,102.9c-29.8,26.4-50.9,42.6-63.4,48.8-12.5,6.1-24.6,8.3-36.4,6.4-11.8-1.9-23.3-6.9-34.5-15-11.2-8.1-25.9-22.4-44-42.8l-95.4-107.7,331.5-293.9ZM3975.1,1204.7l-218.1,193.3c10.9,12.3,20.1,17.7,27.6,16.1,7.5-1.6,22.3-12.2,44.4-31.8l128.8-114.2c15-13.3,24.2-22.3,27.6-27,3.4-4.7,4.6-9.6,3.6-14.7-1-5.1-5.7-12.4-13.9-21.7Z"></path></g><g><path class="cls-4" d="M1371.9,3868.5l-86.9-87.2,58.2-58c16.9-16.9,26.5-28.3,28.9-34.4,2.3-6,.3-12.2-6-18.6-7.2-7.2-14.3-9.2-21.3-6-7,3.2-19,13.2-36,30.1l-155.5,155c-16.3,16.2-25.9,27.8-29,34.7-3,6.9-1.2,13.7,5.6,20.5,6.5,6.5,13.2,8.3,20.2,5.3,7-3,19.6-13.6,38-31.9l42.1-42,86.9,87.2-13,13c-34.6,34.6-61.7,56.6-81,66.2-19.4,9.6-42.9,11.4-70.5,5.5-27.6-5.9-53.7-21.1-78.2-45.7-25.5-25.5-41.8-51.2-49.1-77-7.3-25.8-5.4-49.5,5.5-71.2,11-21.7,32.9-48.9,65.7-81.6l97.8-97.5c24.1-24.1,43-41.3,56.8-51.6,13.7-10.4,30.2-17,49.6-19.9,19.4-2.9,39.5-.3,60.4,7.9,20.9,8.2,40.8,21.7,59.7,40.6,25.6,25.7,41.8,51.8,48.5,78.4,6.7,26.6,5.3,49.9-4.2,69.9-9.6,20-30,45.6-61.2,76.7l-31.8,31.7Z"></path><path class="cls-4" d="M1717.7,4176.9c-23.9,41.1-41.8,69.6-53.6,85.5-11.9,16-27,28-45.4,36.2-18.4,8.2-38.5,11-60.3,8.5-21.8-2.5-44.2-10.5-67.3-23.9-21.9-12.7-39.5-27.8-52.8-45.1-13.3-17.3-21.1-36.2-23.4-56.7-2.3-20.5.4-39.7,8.2-57.7,7.8-18,23.9-48,48.4-90.1l40.7-69.9c23.9-41.1,41.8-69.6,53.6-85.5,11.9-16,27-28,45.4-36.2,18.4-8.2,38.5-11,60.3-8.5,21.8,2.5,44.2,10.5,67.3,23.9,21.9,12.7,39.5,27.8,52.8,45.1,13.3,17.3,21.1,36.2,23.4,56.7,2.3,20.5-.4,39.7-8.2,57.7-7.8,18-23.9,48-48.4,90.1l-40.7,69.9ZM1689.4,3980.7c11.1-19,17.1-31.8,18.1-38.3,1-6.5-1.8-11.7-8.4-15.5-5.6-3.2-11.1-3.6-16.5-1-5.4,2.6-14.3,14.4-26.5,35.4l-111,190.8c-13.8,23.7-21.4,38.9-22.6,45.6-1.3,6.7,1.6,12.1,8.7,16.2,7.2,4.2,13.7,3.7,19.5-1.5,5.7-5.2,15.6-19.9,29.6-43.9l109.3-187.8Z"></path><path class="cls-4" d="M2332.6,4078.5l-112.9,459.1-104.5-25.7,76.1-310-117.8,299.7-74.1-18.2,30.6-313.6-74.6,302.8-104.5-25.7,112.9-459.1,154.7,38c-2.2,28.7-5.5,62.4-9.8,101.1l-11.7,120.9,80.2-207.6,155.5,38.3Z"></path><path class="cls-4" d="M2456.1,4082.9l123.9-4.2c33.5-1.1,59.4.6,77.6,5.3,18.2,4.6,32,11.8,41.4,21.4,9.4,9.6,15.9,21.4,19.6,35.4,3.7,14,6,35.8,7,65.4l1.4,41.1c1,30.2-1.4,52.2-7.1,66.3-5.8,14-16.9,25-33.3,33-16.4,8-38.1,12.4-64.9,13.3l-33,1.1,6.4,190.3-123,4.1-15.9-472.5ZM2581.8,4159.6l4.1,120.2c3.5,0,6.5,0,9.1,0,11.3-.4,19-3.4,23.2-9.1,4.2-5.7,6-17.3,5.4-34.8l-1.3-38.8c-.5-16.1-3.4-26.6-8.7-31.3-5.2-4.7-15.8-6.8-31.8-6.2Z"></path><path class="cls-4" d="M3026.3,4000.6l193.9,436.9-121.3,33.5-29-80.1-42.4,11.7,15.5,83.9-122.7,33.9-65.5-472.4,171.5-47.4ZM3044.5,4310.9c-20.3-49.9-43.9-112.1-71-186.4,12,90.6,22.1,156.5,30.2,197.7l40.8-11.3Z"></path><path class="cls-4" d="M3423.3,3804.7l235.2,410.1-93.6,53.7-162.5-154.6,106.9,186.4-89.3,51.2-235.2-410.1,89.3-51.2,165.8,150.3-105.9-184.7,89.3-51.2Z"></path><path class="cls-4" d="M3713.4,3543.8l144.7,279.5,118.7,123.2-82.1,79.1-118.7-123.2-271.6-157.1,81.4-78.5c76.8,54.2,127,92,150.8,113.4-30.1-41.1-65-93.7-104.6-157.9l81.4-78.5Z"></path></g><text class="cls-1" transform="translate(1648.5 3483.8)"><tspan x="0" y="0">14001:2015</tspan></text></g></g></svg>